<svg width="589" height="358" viewBox="0 0 589 358" fill="none" xmlns="http://www.w3.org/2000/svg">
<path d="M51.8101 312.483C51.8101 312.483 0.480302 262.01 19.0481 211.758C37.6159 161.503 73.4576 160.203 60.5777 128.749C35.4302 67.3438 69.3861 12.6241 164.899 7.19536C230.068 3.49118 279.791 53.8965 343.164 36.9573C427.85 14.32 527.928 13.6669 515.187 88.2443C499.415 180.561 628.449 157.35 544.363 313.636L51.8101 312.483Z" fill="#FFEEE8"/>
<path d="M556.28 321.934C556.28 331.891 506.764 340.639 432.12 345.62C429.479 345.798 426.807 345.969 424.107 346.135C384.296 348.59 337.893 350 288.353 350C241.241 350 196.971 348.726 158.507 346.488C135.671 345.161 114.881 343.494 96.7603 341.551C49.5326 336.491 20.4258 329.571 20.4258 321.934C20.4258 313.493 56.0144 305.919 112.338 300.774C155.441 296.839 210.69 294.323 271.42 293.925C277.02 293.89 282.665 293.872 288.355 293.872C303.629 293.872 318.607 294.005 333.185 294.264C367.141 294.864 398.925 296.131 427.267 297.935C504.609 302.852 556.28 311.762 556.28 321.934Z" fill="#F5D1C4"/>
<path d="M439.29 308.325H137.417C133.103 308.325 129.572 304.794 129.572 300.48V100.575C129.572 96.2602 133.103 92.7295 137.417 92.7295H439.29C443.605 92.7295 447.135 96.2602 447.135 100.575V300.48C447.135 304.796 443.605 308.325 439.29 308.325Z" fill="#FC704E"/>
<path d="M439.971 100.263H136.73V306.133H439.971V100.263Z" fill="#EFCCBF"/>
<path d="M510.605 299.947H66.0957V313.75H510.605V299.947Z" fill="#FC704E"/>
<g opacity="0.4">
<path d="M439.971 100.263H136.73V300.664H439.971V100.263Z" fill="#FFEEE8"/>
</g>
<path d="M392.352 65.5835H216.447V274.701H392.352V65.5835Z" fill="#FFAA96"/>
<path d="M270.122 232.342H234.44C234.409 232.342 234.383 232.317 234.383 232.285V229.946C234.383 229.915 234.407 229.889 234.44 229.889H270.122C270.153 229.889 270.18 229.913 270.18 229.946V232.285C270.18 232.315 270.155 232.342 270.122 232.342Z" fill="#FC704E"/>
<path d="M266.663 239.101H234.438C234.407 239.101 234.385 239.076 234.385 239.048V236.703C234.385 236.674 234.409 236.65 234.438 236.65H266.663C266.694 236.65 266.716 236.674 266.716 236.703V239.048C266.716 239.076 266.692 239.101 266.663 239.101Z" fill="#FC704E"/>
<path d="M278.992 224.987H234.438C234.407 224.987 234.385 224.963 234.385 224.934V222.589C234.385 222.561 234.409 222.536 234.438 222.536H278.992C279.023 222.536 279.045 222.561 279.045 222.589V224.934C279.047 224.963 279.023 224.987 278.992 224.987Z" fill="#FC704E"/>
<path d="M308.506 261.861C295.655 261.861 285.199 251.405 285.199 238.552C285.199 225.699 295.655 215.243 308.506 215.243C321.357 215.243 331.813 225.699 331.813 238.552C331.813 251.405 321.357 261.861 308.506 261.861ZM308.506 217.574C296.938 217.574 287.526 226.986 287.526 238.554C287.526 250.122 296.938 259.534 308.506 259.534C320.074 259.534 329.486 250.122 329.486 238.554C329.484 226.986 320.074 217.574 308.506 217.574Z" fill="#FC704E"/>
<path d="M308.506 253.541C300.242 253.541 293.52 246.818 293.52 238.554C293.52 230.291 300.242 223.568 308.506 223.568C316.769 223.568 323.492 230.291 323.492 238.554C323.49 246.818 316.769 253.541 308.506 253.541ZM308.506 225.897C301.526 225.897 295.848 231.575 295.848 238.554C295.848 245.534 301.526 251.212 308.506 251.212C315.485 251.212 321.163 245.534 321.163 238.554C321.163 231.575 315.483 225.897 308.506 225.897Z" fill="#FC704E"/>
<path d="M319.536 238.554C319.536 232.462 314.597 227.523 308.506 227.523C302.414 227.523 297.475 232.462 297.475 238.554C297.475 244.646 302.414 249.585 308.506 249.585C314.597 249.585 319.536 244.646 319.536 238.554Z" fill="#FC704E"/>
<path d="M319.08 225.584C318.787 225.584 318.491 225.474 318.264 225.249C318.231 225.217 314.607 221.774 308.503 221.774C302.366 221.774 299.723 224.431 299.696 224.458C299.249 224.919 298.513 224.931 298.049 224.484C297.588 224.037 297.576 223.3 298.023 222.839C298.157 222.7 301.39 219.447 308.503 219.447C315.599 219.447 319.723 223.421 319.897 223.59C320.356 224.041 320.362 224.778 319.911 225.237C319.685 225.468 319.382 225.584 319.08 225.584Z" fill="#FC704E"/>
<path d="M308.43 257.781C308.285 257.781 308.138 257.779 307.991 257.777C300.897 257.64 296.848 253.587 296.679 253.416C296.228 252.957 296.236 252.22 296.695 251.769C297.154 251.32 297.891 251.326 298.34 251.787C298.373 251.82 301.93 255.332 308.032 255.448C314.077 255.575 316.867 252.954 316.894 252.926C317.355 252.483 318.09 252.489 318.537 252.946C318.984 253.403 318.982 254.132 318.528 254.583C318.4 254.72 315.239 257.781 308.43 257.781Z" fill="#FC704E"/>
<path d="M377.094 99.0752H231.707V207.38H377.094V99.0752Z" fill="#FFEEE8"/>
<path d="M266.036 92.9629H265.795V207.38H266.036V92.9629Z" fill="#FC704E"/>
<path d="M357.079 92.9629H356.838V207.38H357.079V92.9629Z" fill="#FC704E"/>
<path d="M281.499 92.9629H281.258V207.38H281.499V92.9629Z" fill="#FC704E"/>
<path d="M377.096 187.12H231.709V187.361H377.096V187.12Z" fill="#FC704E"/>
<path d="M377.096 164.455H231.709V164.695H377.096V164.455Z" fill="#FC704E"/>
<path d="M377.096 141.787H231.709V142.028H377.096V141.787Z" fill="#FC704E"/>
<path d="M377.096 119.121H231.709V119.361H377.096V119.121Z" fill="#FC704E"/>
<path d="M377.094 79.4888H231.707V101.467H377.094V79.4888Z" fill="#FC704E"/>
<path d="M241.214 94.5234V85.7962H246.805V87.1214H242.795V89.4908H246.422V90.8161H242.795V94.5234H241.214ZM250.595 94.6513C249.938 94.6513 249.372 94.5149 248.894 94.2422C248.42 93.9666 248.055 93.5774 247.799 93.0746C247.544 92.5689 247.416 91.9737 247.416 91.2891C247.416 90.6158 247.544 90.0249 247.799 89.5163C248.058 89.005 248.419 88.6072 248.882 88.3232C249.345 88.0362 249.889 87.8928 250.514 87.8928C250.917 87.8928 251.298 87.9581 251.656 88.0888C252.017 88.2166 252.335 88.4155 252.61 88.6854C252.889 88.9553 253.107 89.299 253.267 89.7166C253.426 90.1314 253.505 90.6257 253.505 91.1996V91.6726H248.14V90.6328H252.026C252.024 90.3374 251.96 90.0746 251.835 89.8445C251.71 89.6115 251.535 89.4283 251.311 89.2947C251.089 89.1612 250.83 89.0945 250.535 89.0945C250.22 89.0945 249.943 89.1712 249.704 89.3246C249.465 89.4751 249.279 89.674 249.146 89.9212C249.015 90.1655 248.948 90.4339 248.945 90.7266V91.6342C248.945 92.0149 249.015 92.3416 249.154 92.6143C249.294 92.8842 249.488 93.0916 249.738 93.2365C249.988 93.3786 250.281 93.4496 250.616 93.4496C250.84 93.4496 251.044 93.4183 251.225 93.3558C251.407 93.2905 251.565 93.1953 251.698 93.0703C251.832 92.9453 251.933 92.7905 252.001 92.6058L253.441 92.7678C253.35 93.1484 253.177 93.4808 252.921 93.7649C252.669 94.0462 252.345 94.2649 251.95 94.4212C251.555 94.5746 251.103 94.6513 250.595 94.6513ZM257.708 94.6513C257.052 94.6513 256.485 94.5149 256.008 94.2422C255.533 93.9666 255.168 93.5774 254.912 93.0746C254.657 92.5689 254.529 91.9737 254.529 91.2891C254.529 90.6158 254.657 90.0249 254.912 89.5163C255.171 89.005 255.532 88.6072 255.995 88.3232C256.458 88.0362 257.002 87.8928 257.627 87.8928C258.03 87.8928 258.411 87.9581 258.769 88.0888C259.13 88.2166 259.448 88.4155 259.724 88.6854C260.002 88.9553 260.221 89.299 260.38 89.7166C260.539 90.1314 260.618 90.6257 260.618 91.1996V91.6726H255.253V90.6328H259.14C259.137 90.3374 259.073 90.0746 258.948 89.8445C258.823 89.6115 258.648 89.4283 258.424 89.2947C258.202 89.1612 257.944 89.0945 257.648 89.0945C257.333 89.0945 257.056 89.1712 256.817 89.3246C256.579 89.4751 256.393 89.674 256.259 89.9212C256.128 90.1655 256.062 90.4339 256.059 90.7266V91.6342C256.059 92.0149 256.128 92.3416 256.268 92.6143C256.407 92.8842 256.601 93.0916 256.851 93.2365C257.101 93.3786 257.394 93.4496 257.729 93.4496C257.954 93.4496 258.157 93.4183 258.339 93.3558C258.52 93.2905 258.678 93.1953 258.812 93.0703C258.945 92.9453 259.046 92.7905 259.114 92.6058L260.555 92.7678C260.464 93.1484 260.29 93.4808 260.035 93.7649C259.782 94.0462 259.458 94.2649 259.063 94.4212C258.668 94.5746 258.216 94.6513 257.708 94.6513ZM267.097 89.7081L265.691 89.8615C265.651 89.7195 265.581 89.5859 265.482 89.4609C265.385 89.3359 265.254 89.2351 265.09 89.1584C264.925 89.0817 264.723 89.0433 264.485 89.0433C264.164 89.0433 263.894 89.1129 263.675 89.2521C263.459 89.3913 263.352 89.5717 263.355 89.7933C263.352 89.9837 263.422 90.1385 263.564 90.2578C263.709 90.3771 263.948 90.4751 264.28 90.5518L265.396 90.7905C266.016 90.924 266.476 91.1357 266.777 91.4254C267.081 91.7152 267.235 92.0945 267.237 92.5632C267.235 92.9751 267.114 93.3388 266.875 93.6541C266.639 93.9666 266.311 94.2109 265.891 94.3871C265.47 94.5632 264.987 94.6513 264.442 94.6513C263.641 94.6513 262.996 94.4837 262.507 94.1484C262.019 93.8104 261.727 93.3402 261.634 92.7379L263.138 92.593C263.206 92.8885 263.351 93.1115 263.573 93.2621C263.794 93.4126 264.083 93.4879 264.438 93.4879C264.804 93.4879 265.098 93.4126 265.32 93.2621C265.544 93.1115 265.656 92.9254 265.656 92.7038C265.656 92.5163 265.584 92.3615 265.439 92.2393C265.297 92.1172 265.075 92.0234 264.774 91.9581L263.658 91.7237C263.03 91.593 262.566 91.3729 262.264 91.0632C261.963 90.7507 261.814 90.3558 261.817 89.8786C261.814 89.4751 261.923 89.1257 262.145 88.8303C262.369 88.532 262.681 88.3018 263.078 88.1399C263.479 87.9751 263.941 87.8928 264.463 87.8928C265.23 87.8928 265.834 88.0561 266.274 88.3828C266.718 88.7095 266.992 89.1513 267.097 89.7081ZM271.554 85.7962H273.489L276.08 92.12H276.182L278.773 85.7962H280.708V94.5234H279.191V88.5277H279.11L276.698 94.4979H275.564L273.152 88.5149H273.071V94.5234H271.554V85.7962ZM284.244 94.6555C283.83 94.6555 283.456 94.5817 283.124 94.4339C282.794 94.2834 282.533 94.0618 282.34 93.7692C282.149 93.4766 282.054 93.1158 282.054 92.6868C282.054 92.3175 282.122 92.0121 282.259 91.7706C282.395 91.5291 282.581 91.3359 282.817 91.1911C283.053 91.0462 283.318 90.9368 283.614 90.8629C283.912 90.7862 284.22 90.7308 284.539 90.6967C284.922 90.657 285.233 90.6214 285.472 90.5902C285.71 90.5561 285.884 90.505 285.992 90.4368C286.102 90.3658 286.158 90.2564 286.158 90.1087V90.0831C286.158 89.7621 286.063 89.5135 285.872 89.3374C285.682 89.1612 285.408 89.0732 285.05 89.0732C284.672 89.0732 284.372 89.1555 284.151 89.3203C283.932 89.4851 283.784 89.6797 283.708 89.9041L282.267 89.6996C282.381 89.3018 282.568 88.9695 282.83 88.7024C283.091 88.4325 283.411 88.2308 283.789 88.0973C284.166 87.9609 284.584 87.8928 285.041 87.8928C285.357 87.8928 285.671 87.9297 285.983 88.0036C286.296 88.0774 286.581 88.1996 286.84 88.37C287.098 88.5376 287.306 88.7663 287.462 89.0561C287.621 89.3459 287.7 89.7081 287.7 90.1428V94.5234H286.218V93.6243H286.166C286.073 93.8061 285.941 93.9766 285.77 94.1357C285.602 94.2919 285.391 94.4183 285.135 94.5149C284.882 94.6087 284.585 94.6555 284.244 94.6555ZM284.645 93.522C284.955 93.522 285.223 93.4609 285.45 93.3388C285.678 93.2138 285.852 93.049 285.975 92.8445C286.1 92.6399 286.162 92.4169 286.162 92.1754V91.4041C286.114 91.4439 286.031 91.4808 285.915 91.5149C285.801 91.549 285.673 91.5788 285.531 91.6044C285.389 91.63 285.249 91.6527 285.11 91.6726C284.97 91.6925 284.85 91.7095 284.747 91.7237C284.517 91.755 284.311 91.8061 284.129 91.8771C283.948 91.9482 283.804 92.0476 283.699 92.1754C283.594 92.3004 283.541 92.4624 283.541 92.6612C283.541 92.9453 283.645 93.1598 283.852 93.3047C284.06 93.4496 284.324 93.522 284.645 93.522ZM290.794 90.6882V94.5234H289.252V87.978H290.726V89.0902H290.803C290.953 88.7237 291.193 88.4325 291.523 88.2166C291.855 88.0007 292.266 87.8928 292.754 87.8928C293.206 87.8928 293.6 87.9893 293.935 88.1825C294.273 88.3757 294.534 88.6555 294.719 89.022C294.906 89.3885 294.999 89.8331 294.996 90.3558V94.5234H293.453V90.5945C293.453 90.157 293.34 89.8146 293.112 89.5675C292.888 89.3203 292.577 89.1967 292.179 89.1967C291.909 89.1967 291.669 89.2564 291.459 89.3757C291.252 89.4922 291.088 89.6612 290.969 89.8828C290.852 90.1044 290.794 90.3729 290.794 90.6882ZM298.448 94.6555C298.033 94.6555 297.659 94.5817 297.327 94.4339C296.997 94.2834 296.736 94.0618 296.543 93.7692C296.352 93.4766 296.257 93.1158 296.257 92.6868C296.257 92.3175 296.325 92.0121 296.462 91.7706C296.598 91.5291 296.784 91.3359 297.02 91.1911C297.256 91.0462 297.521 90.9368 297.817 90.8629C298.115 90.7862 298.423 90.7308 298.742 90.6967C299.125 90.657 299.436 90.6214 299.675 90.5902C299.914 90.5561 300.087 90.505 300.195 90.4368C300.306 90.3658 300.361 90.2564 300.361 90.1087V90.0831C300.361 89.7621 300.266 89.5135 300.075 89.3374C299.885 89.1612 299.611 89.0732 299.253 89.0732C298.875 89.0732 298.575 89.1555 298.354 89.3203C298.135 89.4851 297.987 89.6797 297.911 89.9041L296.47 89.6996C296.584 89.3018 296.771 88.9695 297.033 88.7024C297.294 88.4325 297.614 88.2308 297.992 88.0973C298.369 87.9609 298.787 87.8928 299.244 87.8928C299.56 87.8928 299.874 87.9297 300.186 88.0036C300.499 88.0774 300.784 88.1996 301.043 88.37C301.301 88.5376 301.509 88.7663 301.665 89.0561C301.824 89.3459 301.904 89.7081 301.904 90.1428V94.5234H300.421V93.6243H300.369C300.276 93.8061 300.144 93.9766 299.973 94.1357C299.806 94.2919 299.594 94.4183 299.338 94.5149C299.085 94.6087 298.789 94.6555 298.448 94.6555ZM298.848 93.522C299.158 93.522 299.426 93.4609 299.654 93.3388C299.881 93.2138 300.056 93.049 300.178 92.8445C300.303 92.6399 300.365 92.4169 300.365 92.1754V91.4041C300.317 91.4439 300.235 91.4808 300.118 91.5149C300.004 91.549 299.877 91.5788 299.735 91.6044C299.593 91.63 299.452 91.6527 299.313 91.6726C299.173 91.6925 299.053 91.7095 298.95 91.7237C298.72 91.755 298.514 91.8061 298.333 91.8771C298.151 91.9482 298.007 92.0476 297.902 92.1754C297.797 92.3004 297.744 92.4624 297.744 92.6612C297.744 92.9453 297.848 93.1598 298.056 93.3047C298.263 93.4496 298.527 93.522 298.848 93.522ZM306.301 97.1143C305.747 97.1143 305.271 97.0391 304.874 96.8885C304.476 96.7408 304.156 96.5419 303.915 96.2919C303.673 96.0419 303.506 95.7649 303.412 95.4609L304.801 95.1243C304.864 95.2521 304.955 95.3786 305.074 95.5036C305.193 95.6314 305.354 95.7365 305.556 95.8189C305.76 95.9041 306.017 95.9467 306.327 95.9467C306.764 95.9467 307.127 95.8402 307.414 95.6271C307.7 95.4169 307.844 95.0703 307.844 94.5874V93.3473H307.767C307.688 93.5064 307.571 93.6697 307.418 93.8374C307.267 94.005 307.067 94.1456 306.817 94.2592C306.57 94.3729 306.259 94.4297 305.884 94.4297C305.381 94.4297 304.925 94.3118 304.516 94.076C304.11 93.8374 303.786 93.4822 303.544 93.0107C303.306 92.5362 303.186 91.9425 303.186 91.2294C303.186 90.5107 303.306 89.9041 303.544 89.4098C303.786 88.9126 304.111 88.5362 304.52 88.2805C304.929 88.022 305.385 87.8928 305.888 87.8928C306.271 87.8928 306.587 87.9581 306.834 88.0888C307.084 88.2166 307.283 88.3714 307.431 88.5533C307.578 88.7322 307.691 88.9013 307.767 89.0604H307.852V87.978H309.374V94.63C309.374 95.1896 309.24 95.6527 308.973 96.0192C308.706 96.3857 308.341 96.6598 307.878 96.8416C307.415 97.0234 306.889 97.1143 306.301 97.1143ZM306.314 93.2195C306.641 93.2195 306.919 93.1399 307.149 92.9808C307.379 92.8217 307.554 92.593 307.673 92.2947C307.793 91.9964 307.852 91.6385 307.852 91.2209C307.852 90.8089 307.793 90.4482 307.673 90.1385C307.557 89.8288 307.384 89.5888 307.154 89.4183C306.926 89.245 306.646 89.1584 306.314 89.1584C305.97 89.1584 305.683 89.2479 305.453 89.4268C305.223 89.6058 305.05 89.8516 304.933 90.1641C304.817 90.4737 304.759 90.826 304.759 91.2209C304.759 91.6214 304.817 91.9723 304.933 92.2734C305.053 92.5717 305.227 92.8047 305.458 92.9723C305.691 93.1371 305.976 93.2195 306.314 93.2195ZM313.852 94.6513C313.196 94.6513 312.629 94.5149 312.152 94.2422C311.678 93.9666 311.313 93.5774 311.057 93.0746C310.801 92.5689 310.673 91.9737 310.673 91.2891C310.673 90.6158 310.801 90.0249 311.057 89.5163C311.316 89.005 311.676 88.6072 312.139 88.3232C312.602 88.0362 313.146 87.8928 313.771 87.8928C314.175 87.8928 314.556 87.9581 314.914 88.0888C315.274 88.2166 315.593 88.4155 315.868 88.6854C316.146 88.9553 316.365 89.299 316.524 89.7166C316.683 90.1314 316.763 90.6257 316.763 91.1996V91.6726H311.398V90.6328H315.284C315.281 90.3374 315.218 90.0746 315.093 89.8445C314.968 89.6115 314.793 89.4283 314.568 89.2947C314.347 89.1612 314.088 89.0945 313.793 89.0945C313.477 89.0945 313.2 89.1712 312.962 89.3246C312.723 89.4751 312.537 89.674 312.404 89.9212C312.273 90.1655 312.206 90.4339 312.203 90.7266V91.6342C312.203 92.0149 312.273 92.3416 312.412 92.6143C312.551 92.8842 312.746 93.0916 312.996 93.2365C313.246 93.3786 313.539 93.4496 313.874 93.4496C314.098 93.4496 314.301 93.4183 314.483 93.3558C314.665 93.2905 314.823 93.1953 314.956 93.0703C315.09 92.9453 315.191 92.7905 315.259 92.6058L316.699 92.7678C316.608 93.1484 316.435 93.4808 316.179 93.7649C315.926 94.0462 315.602 94.2649 315.208 94.4212C314.813 94.5746 314.361 94.6513 313.852 94.6513ZM318.068 94.5234V87.978H319.542V89.0902H319.619C319.756 88.7152 319.981 88.4226 320.297 88.2124C320.612 87.9993 320.988 87.8928 321.426 87.8928C321.869 87.8928 322.243 88.0007 322.547 88.2166C322.854 88.4297 323.069 88.7209 323.194 89.0902H323.263C323.407 88.7266 323.652 88.4368 323.996 88.2209C324.342 88.0021 324.753 87.8928 325.227 87.8928C325.829 87.8928 326.321 88.0831 326.702 88.4638C327.082 88.8445 327.273 89.3999 327.273 90.13V94.5234H325.726V90.3686C325.726 89.9624 325.618 89.6655 325.402 89.478C325.186 89.2876 324.922 89.1925 324.609 89.1925C324.237 89.1925 323.946 89.3089 323.736 89.5419C323.528 89.772 323.425 90.0717 323.425 90.4411V94.5234H321.912V90.3047C321.912 89.9666 321.809 89.6967 321.605 89.495C321.403 89.2933 321.139 89.1925 320.812 89.1925C320.591 89.1925 320.389 89.2493 320.207 89.3629C320.025 89.4737 319.881 89.6314 319.773 89.8359C319.665 90.0376 319.611 90.2734 319.611 90.5433V94.5234H318.068ZM331.735 94.6513C331.079 94.6513 330.512 94.5149 330.035 94.2422C329.561 93.9666 329.195 93.5774 328.94 93.0746C328.684 92.5689 328.556 91.9737 328.556 91.2891C328.556 90.6158 328.684 90.0249 328.94 89.5163C329.198 89.005 329.559 88.6072 330.022 88.3232C330.485 88.0362 331.029 87.8928 331.654 87.8928C332.058 87.8928 332.438 87.9581 332.796 88.0888C333.157 88.2166 333.475 88.4155 333.751 88.6854C334.029 88.9553 334.248 89.299 334.407 89.7166C334.566 90.1314 334.646 90.6257 334.646 91.1996V91.6726H329.281V90.6328H333.167C333.164 90.3374 333.1 90.0746 332.975 89.8445C332.85 89.6115 332.676 89.4283 332.451 89.2947C332.23 89.1612 331.971 89.0945 331.676 89.0945C331.36 89.0945 331.083 89.1712 330.845 89.3246C330.606 89.4751 330.42 89.674 330.286 89.9212C330.156 90.1655 330.089 90.4339 330.086 90.7266V91.6342C330.086 92.0149 330.156 92.3416 330.295 92.6143C330.434 92.8842 330.629 93.0916 330.879 93.2365C331.129 93.3786 331.421 93.4496 331.757 93.4496C331.981 93.4496 332.184 93.4183 332.366 93.3558C332.548 93.2905 332.705 93.1953 332.839 93.0703C332.972 92.9453 333.073 92.7905 333.142 92.6058L334.582 92.7678C334.491 93.1484 334.318 93.4808 334.062 93.7649C333.809 94.0462 333.485 94.2649 333.09 94.4212C332.695 94.5746 332.244 94.6513 331.735 94.6513ZM337.493 90.6882V94.5234H335.951V87.978H337.425V89.0902H337.502C337.653 88.7237 337.893 88.4325 338.222 88.2166C338.555 88.0007 338.965 87.8928 339.454 87.8928C339.905 87.8928 340.299 87.9893 340.634 88.1825C340.972 88.3757 341.233 88.6555 341.418 89.022C341.606 89.3885 341.698 89.8331 341.695 90.3558V94.5234H340.153V90.5945C340.153 90.157 340.039 89.8146 339.812 89.5675C339.587 89.3203 339.276 89.1967 338.878 89.1967C338.608 89.1967 338.368 89.2564 338.158 89.3757C337.951 89.4922 337.787 89.6612 337.668 89.8828C337.552 90.1044 337.493 90.3729 337.493 90.6882ZM346.532 87.978V89.1712H342.769V87.978H346.532ZM343.698 86.4098H345.241V92.5547C345.241 92.7621 345.272 92.9212 345.334 93.032C345.4 93.1399 345.485 93.2138 345.59 93.2536C345.695 93.2933 345.812 93.3132 345.939 93.3132C346.036 93.3132 346.124 93.3061 346.204 93.2919C346.286 93.2777 346.349 93.2649 346.391 93.2536L346.651 94.4595C346.569 94.4879 346.451 94.5192 346.297 94.5533C346.147 94.5874 345.962 94.6072 345.743 94.6129C345.357 94.6243 345.009 94.5661 344.699 94.4382C344.39 94.3075 344.144 94.1058 343.962 93.8331C343.783 93.5604 343.695 93.2195 343.698 92.8104V86.4098Z" fill="white"/>
<path d="M196.365 319.038H108.73C104.824 319.038 101.656 315.871 101.656 311.964V219.856C101.656 215.95 104.824 212.782 108.73 212.782H196.367C200.273 212.782 203.44 215.95 203.44 219.856V311.964C203.438 315.871 200.273 319.038 196.365 319.038Z" fill="#FF967C"/>
<path d="M194.532 236.909H110.571C108.853 236.909 107.461 235.517 107.461 233.799V223.137C107.461 221.419 108.853 220.027 110.571 220.027H194.53C196.249 220.027 197.641 221.419 197.641 223.137V233.799C197.643 235.517 196.249 236.909 194.532 236.909Z" fill="#FFEEE8"/>
<path d="M174.459 261.503H167.271C165.475 261.503 164.018 260.048 164.018 258.252V251.064C164.018 249.268 165.473 247.811 167.271 247.811H174.459C176.255 247.811 177.71 249.266 177.71 251.064V258.252C177.71 260.048 176.255 261.503 174.459 261.503Z" fill="#D64F2E"/>
<path d="M138.914 278.306H131.726C129.93 278.306 128.473 276.851 128.473 275.055V267.867C128.473 266.071 129.928 264.616 131.726 264.616H138.914C140.71 264.616 142.165 266.071 142.165 267.867V275.055C142.167 276.851 140.71 278.306 138.914 278.306Z" fill="#FFEEE8"/>
<path d="M138.914 295.109H131.726C129.93 295.109 128.473 293.654 128.473 291.856V284.668C128.473 282.872 129.928 281.417 131.726 281.417H138.914C140.71 281.417 142.165 282.872 142.165 284.668V291.856C142.167 293.652 140.71 295.109 138.914 295.109Z" fill="#FFEEE8"/>
<path d="M138.914 311.91H131.726C129.93 311.91 128.473 310.455 128.473 308.659V301.471C128.473 299.675 129.928 298.218 131.726 298.218H138.914C140.71 298.218 142.165 299.673 142.165 301.471V308.659C142.167 310.453 140.71 311.91 138.914 311.91Z" fill="#FFEEE8"/>
<path d="M157.007 278.306H149.82C148.024 278.306 146.566 276.851 146.566 275.055V267.867C146.566 266.071 148.022 264.616 149.82 264.616H157.007C158.803 264.616 160.259 266.071 160.259 267.867V275.055C160.261 276.851 158.803 278.306 157.007 278.306Z" fill="#FFEEE8"/>
<path d="M157.007 295.109H149.82C148.024 295.109 146.566 293.654 146.566 291.856V284.668C146.566 282.872 148.022 281.417 149.82 281.417H157.007C158.803 281.417 160.259 282.872 160.259 284.668V291.856C160.261 293.652 158.803 295.109 157.007 295.109Z" fill="#FFEEE8"/>
<path d="M157.007 311.91H149.82C148.024 311.91 146.566 310.455 146.566 308.659V301.471C146.566 299.675 148.022 298.218 149.82 298.218H157.007C158.803 298.218 160.259 299.673 160.259 301.471V308.659C160.261 310.453 158.803 311.91 157.007 311.91Z" fill="#FFEEE8"/>
<path d="M174.457 278.306H167.269C165.473 278.306 164.016 276.851 164.016 275.055V267.867C164.016 266.071 165.471 264.616 167.269 264.616H174.457C176.253 264.616 177.708 266.071 177.708 267.867V275.055C177.708 276.851 176.253 278.306 174.457 278.306Z" fill="#FFEEE8"/>
<path d="M174.457 295.108H167.269C165.473 295.108 164.016 293.653 164.016 291.855V284.667C164.016 282.871 165.471 281.416 167.269 281.416H174.457C176.253 281.416 177.708 282.871 177.708 284.667V291.855C177.708 293.651 176.253 295.108 174.457 295.108Z" fill="#FFEEE8"/>
<path d="M174.457 311.91H167.269C165.473 311.91 164.016 310.455 164.016 308.659V301.471C164.016 299.675 165.471 298.218 167.269 298.218H174.457C176.253 298.218 177.708 299.673 177.708 301.471V308.659C177.708 310.453 176.253 311.91 174.457 311.91Z" fill="#FFEEE8"/>
<path d="M121.623 258.578H114.435C112.639 258.578 111.182 257.123 111.182 255.325V251.062C111.182 249.266 112.637 247.809 114.435 247.809H121.623C123.419 247.809 124.874 249.264 124.874 251.062V255.325C124.874 257.121 123.419 258.578 121.623 258.578Z" fill="#D64F2E"/>
<path d="M121.623 276.195H114.435C112.639 276.195 111.182 274.74 111.182 272.942V268.679C111.182 266.883 112.637 265.426 114.435 265.426H121.623C123.419 265.426 124.874 266.881 124.874 268.679V272.942C124.874 274.74 123.419 276.195 121.623 276.195Z" fill="#D64F2E"/>
<path d="M121.623 293.814H114.435C112.639 293.814 111.182 292.359 111.182 290.561V286.297C111.182 284.502 112.637 283.046 114.435 283.046H121.623C123.419 283.046 124.874 284.502 124.874 286.297V290.561C124.874 292.357 123.419 293.814 121.623 293.814Z" fill="#D64F2E"/>
<path d="M121.623 311.431H114.435C112.639 311.431 111.182 309.975 111.182 308.18V303.916C111.182 302.12 112.637 300.665 114.435 300.665H121.623C123.419 300.665 124.874 302.12 124.874 303.916V308.18C124.874 309.975 123.419 311.431 121.623 311.431Z" fill="#D64F2E"/>
<path d="M138.912 261.503H131.724C129.928 261.503 128.471 260.048 128.471 258.252V251.064C128.471 249.268 129.926 247.811 131.724 247.811H138.912C140.708 247.811 142.163 249.266 142.163 251.064V258.252C142.165 260.048 140.708 261.503 138.912 261.503Z" fill="#D64F2E"/>
<path d="M157.006 261.503H149.818C148.022 261.503 146.564 260.048 146.564 258.252V251.064C146.564 249.268 148.02 247.811 149.818 247.811H157.006C158.801 247.811 160.257 249.266 160.257 251.064V258.252C160.259 260.048 158.801 261.503 157.006 261.503Z" fill="#D64F2E"/>
<path d="M190.853 278.388H183.665C181.869 278.388 180.412 276.932 180.412 275.134V267.946C180.412 266.15 181.867 264.695 183.665 264.695H190.853C192.649 264.695 194.104 266.15 194.104 267.946V275.134C194.104 276.93 192.649 278.388 190.853 278.388Z" fill="#D64F2E"/>
<path d="M190.853 261.585H183.665C181.869 261.585 180.412 260.13 180.412 258.334V251.146C180.412 249.35 181.867 247.895 183.665 247.895H190.853C192.649 247.895 194.104 249.35 194.104 251.146V258.334C194.104 260.127 192.649 261.585 190.853 261.585Z" fill="#D64F2E"/>
<path d="M190.853 311.989H183.665C181.869 311.989 180.412 310.534 180.412 308.738V284.748C180.412 282.952 181.867 281.495 183.665 281.495H190.853C192.649 281.495 194.104 282.95 194.104 284.748V308.738C194.104 310.534 192.649 311.989 190.853 311.989Z" fill="#D64F2E"/>
<path d="M220.61 335.603C237.48 335.874 251.219 332.242 251.295 327.488C251.37 322.735 237.758 318.662 220.886 318.39C204.014 318.119 190.277 321.752 190.201 326.505C190.126 331.26 203.741 335.334 220.61 335.603Z" fill="#EA5750"/>
<path d="M251.295 327.488L251.554 321.996L245.988 322.733L190.46 321.012L190.201 326.506L208.347 332.478L234.235 329.623L251.295 327.488Z" fill="#EA5750"/>
<path d="M220.868 330.111C237.738 330.382 251.477 326.749 251.553 321.996C251.628 317.243 238.016 313.169 221.144 312.898C204.274 312.627 190.535 316.259 190.459 321.013C190.384 325.766 203.998 329.839 220.868 330.111Z" fill="#FA7267"/>
<path d="M197.585 320.568L203.352 320.66C203.424 319.727 204.469 318.778 205.905 318.237L209.726 318.684C208.346 319.241 207.248 320.06 207.232 320.962C207.214 322.105 209.542 322.915 212.797 322.966C215.938 323.017 217.891 322.421 219.622 321.258C221.932 319.654 224.575 318.682 229.545 318.762C234.286 318.837 237.867 319.845 238.7 321.339L244.468 321.433L244.451 322.431L238.912 322.341C238.782 323.305 237.857 323.95 236.88 324.401L233.116 323.937C233.806 323.611 235.074 322.97 235.09 321.941C235.11 320.703 232.49 320.194 230.206 320.158C227.237 320.111 225.743 320.682 223.663 322.048C221.239 323.666 218.255 324.456 213.171 324.374C208.659 324.301 204.448 323.35 203.503 321.676L197.564 321.58L197.585 320.568Z" fill="white"/>
<path d="M214.401 323.955C231.271 324.227 245.01 320.594 245.086 315.841C245.161 311.088 231.549 307.014 214.677 306.743C197.805 306.471 184.068 310.104 183.993 314.857C183.917 319.61 197.53 323.684 214.401 323.955Z" fill="#EA5750"/>
<path d="M245.086 315.841L245.345 310.347L239.781 311.084L184.251 309.365L183.992 314.857L202.138 320.831L228.028 317.976L245.086 315.841Z" fill="#EA5750"/>
<path d="M214.659 318.461C231.529 318.733 245.268 315.1 245.344 310.347C245.419 305.594 231.807 301.52 214.935 301.249C198.063 300.977 184.326 304.61 184.25 309.363C184.175 314.118 197.789 318.19 214.659 318.461Z" fill="#FA7267"/>
<path d="M191.38 308.918L197.147 309.012C197.219 308.079 198.264 307.13 199.7 306.589L203.521 307.036C202.141 307.593 201.043 308.412 201.027 309.314C201.009 310.457 203.337 311.267 206.592 311.318C209.733 311.369 211.684 310.773 213.417 309.61C215.727 308.006 218.37 307.034 223.34 307.114C228.081 307.189 231.662 308.198 232.495 309.691L238.262 309.783L238.246 310.781L232.707 310.692C232.577 311.655 231.652 312.3 230.675 312.751L226.911 312.287C227.601 311.961 228.868 311.32 228.885 310.291C228.905 309.053 226.285 308.545 224.001 308.508C221.031 308.461 219.538 309.032 217.458 310.398C215.033 312.016 212.05 312.806 206.968 312.724C202.455 312.651 198.245 311.7 197.3 310.026L191.361 309.93L191.38 308.918Z" fill="white"/>
<path d="M221.731 316.714C238.601 316.986 252.34 313.353 252.416 308.6C252.491 303.847 238.879 299.773 222.007 299.502C205.135 299.23 191.398 302.863 191.323 307.616C191.247 312.369 204.862 316.443 221.731 316.714Z" fill="#EA5750"/>
<path d="M252.416 308.6L252.675 303.106L247.111 303.842L191.583 302.124L191.322 307.616L209.47 313.59L235.358 310.734L252.416 308.6Z" fill="#EA5750"/>
<path d="M221.987 311.222C238.857 311.494 252.596 307.861 252.672 303.108C252.747 298.354 239.135 294.281 222.263 294.009C205.391 293.738 191.654 297.371 191.578 302.124C191.503 306.877 205.118 310.951 221.987 311.222Z" fill="#FA7267"/>
<path d="M198.706 301.677L204.473 301.769C204.545 300.836 205.59 299.887 207.027 299.349L210.847 299.796C209.467 300.353 208.369 301.171 208.353 302.073C208.335 303.216 210.663 304.026 213.919 304.077C217.059 304.128 219.013 303.532 220.743 302.369C223.053 300.765 225.696 299.794 230.666 299.873C235.407 299.949 238.989 300.957 239.821 302.451L245.589 302.543L245.572 303.541L240.034 303.451C239.903 304.414 238.978 305.059 238.001 305.51L234.237 305.047C234.927 304.72 236.195 304.079 236.211 303.051C236.231 301.812 233.611 301.304 231.327 301.267C228.358 301.22 226.864 301.792 224.784 303.157C222.36 304.775 219.376 305.565 214.292 305.483C209.78 305.41 205.569 304.457 204.624 302.785L198.686 302.69L198.706 301.677Z" fill="white"/>
<path d="M221.773 308.525C238.642 308.796 252.381 305.164 252.457 300.41C252.532 295.657 238.92 291.584 222.048 291.312C205.178 291.041 191.439 294.673 191.364 299.427C191.288 304.18 204.901 308.253 221.773 308.525Z" fill="#EA5750"/>
<path d="M252.459 300.408L252.718 294.916L247.154 295.653L191.624 293.935L191.365 299.427L209.511 305.4L235.399 302.545L252.459 300.408Z" fill="#EA5750"/>
<path d="M222.03 303.031C238.9 303.302 252.639 299.669 252.715 294.916C252.792 290.163 239.178 286.089 222.306 285.818C205.436 285.547 191.697 289.179 191.621 293.932C191.546 298.688 205.161 302.759 222.03 303.031Z" fill="#FA7267"/>
<path d="M198.749 293.488L204.516 293.58C204.588 292.647 205.633 291.698 207.069 291.159L210.89 291.606C209.51 292.163 208.412 292.984 208.396 293.884C208.378 295.027 210.706 295.837 213.961 295.888C217.102 295.939 219.053 295.343 220.786 294.18C223.096 292.576 225.739 291.604 230.709 291.684C235.45 291.759 239.031 292.767 239.864 294.261L245.632 294.353L245.615 295.351L240.076 295.261C239.946 296.225 239.021 296.87 238.044 297.321L234.28 296.857C234.97 296.531 236.238 295.89 236.254 294.861C236.274 293.623 233.654 293.114 231.37 293.078C228.401 293.031 226.907 293.602 224.827 294.967C222.402 296.586 219.419 297.376 214.337 297.294C209.825 297.223 205.614 296.27 204.669 294.596L198.73 294.5L198.749 293.488Z" fill="white"/>
<path d="M221.815 300.733C238.685 301.004 252.424 297.371 252.5 292.618C252.575 287.865 238.963 283.792 222.091 283.52C205.221 283.249 191.482 286.881 191.407 291.635C191.331 296.388 204.946 300.461 221.815 300.733Z" fill="#EA5750"/>
<path d="M252.502 292.618L252.763 287.124L247.197 287.861L191.669 286.143L191.408 291.635L209.556 297.608L235.444 294.753L252.502 292.618Z" fill="#EA5750"/>
<path d="M222.075 295.241C238.945 295.512 252.684 291.879 252.76 287.126C252.835 282.373 239.223 278.299 222.351 278.028C205.481 277.757 191.742 281.389 191.666 286.142C191.591 290.896 205.205 294.969 222.075 295.241Z" fill="#FA7267"/>
<path d="M198.796 285.696L204.563 285.79C204.635 284.857 205.68 283.908 207.116 283.367L210.937 283.814C209.557 284.371 208.459 285.19 208.443 286.092C208.425 287.235 210.753 288.045 214.008 288.096C217.149 288.147 219.1 287.551 220.833 286.388C223.143 284.784 225.786 283.812 230.756 283.892C235.497 283.967 239.078 284.975 239.911 286.469L245.679 286.563L245.662 287.561L240.123 287.471C239.993 288.435 239.068 289.08 238.091 289.531L234.327 289.067C235.017 288.741 236.284 288.1 236.301 287.071C236.321 285.833 233.701 285.324 231.417 285.288C228.448 285.241 226.954 285.812 224.874 287.177C222.449 288.796 219.466 289.586 214.382 289.504C209.87 289.431 205.659 288.48 204.714 286.806L198.775 286.71L198.796 285.696Z" fill="white"/>
<path d="M214.958 294.576C231.828 294.847 245.567 291.215 245.642 286.462C245.718 281.708 232.105 277.635 215.234 277.363C198.364 277.092 184.625 280.725 184.549 285.478C184.474 290.233 198.088 294.305 214.958 294.576Z" fill="#EA5750"/>
<path d="M245.64 286.462L245.901 280.968L240.336 281.706L184.808 279.986L184.549 285.48L202.694 291.451L228.583 288.596L245.64 286.462Z" fill="#EA5750"/>
<path d="M215.214 289.084C232.084 289.355 245.823 285.723 245.898 280.969C245.974 276.216 232.361 272.143 215.489 271.871C198.62 271.6 184.881 275.233 184.805 279.986C184.729 284.739 198.344 288.812 215.214 289.084Z" fill="#FA7267"/>
<path d="M191.931 279.54L197.698 279.632C197.769 278.699 198.814 277.75 200.251 277.209L204.072 277.656C202.692 278.214 201.594 279.032 201.578 279.934C201.559 281.077 203.888 281.887 207.143 281.938C210.284 281.989 212.235 281.393 213.968 280.23C216.278 278.626 218.921 277.654 223.891 277.734C228.631 277.809 232.213 278.818 233.046 280.312L238.813 280.405L238.797 281.403L233.258 281.314C233.128 282.277 232.203 282.922 231.225 283.373L227.462 282.91C228.152 282.583 229.419 281.942 229.436 280.914C229.456 279.675 226.836 279.167 224.552 279.13C221.582 279.083 220.088 279.654 218.009 281.02C215.584 282.638 212.6 283.428 207.517 283.346C203.004 283.273 198.794 282.322 197.849 280.648L191.91 280.552L191.931 279.54Z" fill="white"/>
<path d="M224.37 281.42C241.24 281.691 254.979 278.059 255.055 273.305C255.13 268.552 241.518 264.479 224.646 264.207C207.776 263.936 194.037 267.568 193.961 272.322C193.886 277.075 207.5 281.148 224.37 281.42Z" fill="#EA5750"/>
<path d="M255.054 273.303L255.313 267.811L249.75 268.548L194.22 266.828L193.961 272.322L212.106 278.293L237.997 275.44L255.054 273.303Z" fill="#EA5750"/>
<path d="M224.63 275.926C241.5 276.198 255.239 272.565 255.314 267.812C255.39 263.058 241.777 258.985 224.905 258.713C208.036 258.442 194.297 262.075 194.221 266.828C194.146 271.581 207.76 275.655 224.63 275.926Z" fill="#FA7267"/>
<path d="M201.345 266.383L207.112 266.475C207.183 265.542 208.228 264.593 209.665 264.055L213.486 264.502C212.106 265.059 211.008 265.879 210.992 266.779C210.973 267.922 213.302 268.732 216.557 268.783C219.698 268.834 221.649 268.238 223.382 267.075C225.692 265.471 228.335 264.5 233.305 264.579C238.045 264.655 241.627 265.663 242.46 267.157L248.227 267.251L248.211 268.249L242.672 268.159C242.541 269.122 241.617 269.767 240.639 270.218L236.876 269.755C237.566 269.428 238.833 268.787 238.85 267.759C238.87 266.52 236.25 266.012 233.966 265.975C230.996 265.928 229.502 266.5 227.423 267.865C224.998 269.483 222.014 270.273 216.933 270.192C212.42 270.118 208.21 269.167 207.265 267.494L201.326 267.398L201.345 266.383Z" fill="white"/>
<path d="M267.505 335.581C285.475 335.326 299.83 320.134 299.568 301.648C299.305 283.163 284.524 268.384 266.554 268.639C248.584 268.895 234.228 284.087 234.491 302.573C234.753 321.058 249.534 335.837 267.505 335.581Z" fill="#FA7267"/>
<path d="M265.273 327.813L265.183 321.493C261.654 321.48 257.987 320.405 255.836 318.872L257.236 314.66C259.446 316.131 262.628 317.274 266.034 317.225C270.353 317.164 273.236 314.556 273.185 310.99C273.136 307.549 270.734 305.456 266.206 303.641C259.965 301.227 256.091 298.402 256.013 292.959C255.94 287.765 259.473 283.771 265.057 282.755L264.967 276.434L268.738 276.381L268.824 282.451C272.475 282.524 274.983 283.49 276.763 284.528L275.302 288.68C274.014 287.947 271.5 286.606 267.606 286.661C262.922 286.729 261.199 289.631 261.234 292.135C261.281 295.388 263.555 296.984 268.879 299.162C275.181 301.7 278.392 304.911 278.471 310.478C278.541 315.421 275.261 320.101 269.012 321.252L269.104 327.76L265.273 327.813Z" fill="white"/>
<path d="M152.072 239.393C152.072 239.393 152.415 244.844 150.276 247.385C148.137 249.928 143.855 253.461 144.8 254.569C145.745 255.677 157.623 250.808 157.468 249.506C157.313 248.201 155.933 242.799 156.564 239.75L152.072 239.393Z" fill="#F9A58F"/>
<path d="M156.981 246.843C157.201 248.056 157.411 249.041 157.466 249.505C157.621 250.809 145.744 255.676 144.799 254.568C144.097 253.745 146.272 251.59 148.315 249.494C149.311 250.239 151.915 251.152 156.981 246.843Z" fill="#060633"/>
<path d="M163.275 241.159C163.275 241.159 163.618 246.61 161.479 249.151C159.34 251.694 155.058 255.227 156.003 256.335C156.948 257.443 168.826 252.574 168.671 251.272C168.516 249.968 167.136 244.565 167.767 241.516L163.275 241.159Z" fill="#F9A58F"/>
<path d="M172.29 147.412C169.555 149.3 167.993 152.759 168.389 156.059C168.712 158.747 170.216 161.386 169.579 164.016C169.34 165.002 168.814 165.892 168.447 166.837C167.816 168.463 167.667 170.274 168.024 171.98C168.271 173.155 168.785 174.325 169.722 175.074C170.363 175.586 171.155 175.868 171.936 176.119C173.628 176.662 175.381 177.109 177.157 177.062C178.933 177.013 180.753 176.421 181.986 175.139C182.814 174.278 183.439 173.082 184.588 172.751C184.982 172.637 185.398 172.643 185.806 172.647C187.394 172.668 189.004 172.692 190.525 173.147C192.145 173.633 193.629 174.6 195.308 174.794C197.711 175.072 200.202 173.506 200.994 171.221C201.786 168.935 200.796 166.165 198.737 164.896C197.106 163.892 194.853 163.676 193.859 162.037C193.027 160.663 193.468 158.847 192.866 157.359C191.817 154.771 188.31 154.332 186.314 152.379C184.382 150.487 183.639 147.834 181.09 146.52C178.426 145.149 174.675 145.765 172.29 147.412Z" fill="black"/>
<path d="M193.825 199.154C193.825 199.154 195.486 212.495 191.037 214.003C186.588 215.511 171.865 217.619 170.789 220.199C169.714 222.777 168.867 244.44 168.867 244.44L161.969 244.098C161.969 244.098 161.512 221.556 161.708 219.183C162.206 213.17 163.414 212.889 163.414 212.889C163.414 212.889 161.487 213.223 160.25 217.86C159.701 219.917 158.497 241.583 158.497 241.583L150.813 241.2C150.813 241.2 148.489 210.717 154.077 206.995C159.667 203.272 174.555 198.419 174.555 198.419L193.825 199.154Z" fill="#FA7267"/>
<path d="M168.318 179.463L164.141 191.982L169.008 193.574C169.008 193.574 172.702 188.231 174.227 183.121C175.751 178.01 168.318 179.463 168.318 179.463Z" fill="#F9A58F"/>
<path d="M180.11 166.994C180.11 166.994 174.491 167.839 171.797 170.853C169.105 173.867 167.018 180.676 167.018 180.676L172.146 182.759C172.146 182.759 172.097 186.629 174.454 187.849C174.454 187.849 175.516 194.002 173.569 199.013C173.569 199.013 186.224 203.89 194.484 200.672L196.508 183.272L201.547 181.604C201.547 181.604 199.865 170.237 193.967 168.092C188.069 165.945 183.522 166.102 180.11 166.994Z" fill="#F8A52D"/>
<path d="M200.343 182.002L193.406 184.123C193.406 184.123 194.572 189.737 193.837 192.484C192.665 196.858 186.165 200.866 183.165 200.436L183.092 203.109C183.092 203.109 198.145 203.35 200.48 195.076C202.813 186.807 200.343 182.002 200.343 182.002Z" fill="#F9A58F"/>
<path d="M172.138 182.85H172.14C172.189 182.852 172.232 182.815 172.234 182.766C172.338 180.931 174.14 178.668 174.159 178.645C174.189 178.607 174.183 178.552 174.145 178.519C174.106 178.488 174.051 178.494 174.018 178.533C173.942 178.627 172.161 180.864 172.055 182.756C172.055 182.805 172.089 182.846 172.138 182.85Z" fill="#0B0755"/>
<path d="M185.037 186.036C186.408 186.144 188.118 185.821 190.016 184.44C190.057 184.411 190.065 184.354 190.037 184.315C190.008 184.274 189.951 184.266 189.912 184.295C185.298 187.648 181.837 184.625 181.802 184.595C181.765 184.562 181.708 184.564 181.675 184.601C181.643 184.638 181.645 184.695 181.682 184.727C181.704 184.748 182.992 185.874 185.037 186.036Z" fill="#0B0755"/>
<path d="M192.482 184.461C192.492 184.461 192.502 184.461 192.513 184.459L193.429 184.208C193.476 184.196 193.504 184.147 193.492 184.098C193.48 184.051 193.429 184.022 193.382 184.035L192.555 184.259L191.094 177.712C191.084 177.663 191.037 177.633 190.988 177.645C190.939 177.655 190.908 177.704 190.921 177.751L192.402 184.39C192.408 184.414 192.423 184.435 192.443 184.447C192.453 184.457 192.468 184.461 192.482 184.461Z" fill="#0B0755"/>
<path d="M171.818 158.937C171.818 158.937 171.037 158.273 170.704 158.731C169.855 159.9 171.367 160.688 172.167 160.72L171.818 158.937Z" fill="#DD7A66"/>
<path d="M175.838 146.975C179.257 146.224 182.753 148.187 183.902 151.491C184.279 152.579 184.371 153.687 184.222 154.742C183.973 157.34 183.753 159.438 183.198 161.081C182.637 162.744 182.681 164.555 183.404 166.155L183.692 166.796C183.965 167.402 183.775 168.118 183.237 168.512C181.577 169.726 180.249 169.822 179.432 169.689C178.91 169.606 178.483 169.226 178.336 168.716L177.406 165.493C173.049 166.208 171.363 158.273 170.698 155.975H170.704C170.675 155.889 170.649 155.805 170.622 155.718C169.514 151.873 171.865 147.848 175.838 146.975Z" fill="#F9A58F"/>
<path d="M178.286 153.648C179.348 154.246 180.329 154.97 181.309 155.693C182.346 156.458 183.425 157.277 183.948 158.454C184.795 157.315 185.136 155.883 185.364 154.481C185.47 153.832 185.558 153.168 185.466 152.515C185.338 151.593 184.86 150.758 184.393 149.952C183.789 148.911 183.148 147.829 182.133 147.183C181.462 146.754 180.67 146.548 179.884 146.427C178.046 146.144 176.115 146.299 174.417 147.056C172.719 147.815 171.276 149.209 170.637 150.956C169.815 153.205 170.37 155.697 170.935 158.026C170.89 157.005 171.29 156.024 171.682 155.079C171.937 154.464 172.201 153.838 172.643 153.342C173.399 152.497 173.692 152.548 174.992 150.985C175.823 152.283 176.96 152.901 178.286 153.648Z" fill="black"/>
<path d="M182.718 157.21C182.763 156.963 182.904 156.743 183.102 156.588C183.51 156.267 184.267 155.828 184.989 156.226C186.049 156.81 185.026 159.469 183.077 158.859C183.077 158.859 182.475 158.526 182.718 157.21Z" fill="#F9A58F"/>
<path d="M172.944 158.68C172.819 158.368 172.972 158.014 173.285 157.89C173.597 157.766 173.95 157.919 174.074 158.231C174.199 158.543 174.046 158.896 173.734 159.021C173.421 159.143 173.066 158.992 172.944 158.68Z" fill="#050521"/>
<path d="M178.639 157.704C178.515 157.391 178.668 157.038 178.98 156.914C179.292 156.789 179.645 156.942 179.77 157.255C179.894 157.567 179.741 157.92 179.429 158.045C179.117 158.169 178.764 158.016 178.639 157.704Z" fill="#050521"/>
<path d="M180.318 156.31C180.387 156.286 180.444 156.233 180.471 156.161C180.52 156.031 180.455 155.886 180.324 155.835C180.285 155.821 179.348 155.482 178.295 155.9C178.165 155.951 178.101 156.098 178.152 156.229C178.203 156.359 178.363 156.421 178.481 156.372C179.357 156.025 180.136 156.306 180.144 156.31C180.203 156.331 180.265 156.329 180.318 156.31Z" fill="#0B0755"/>
<path d="M174.079 157.018C174.143 156.981 174.19 156.92 174.204 156.843C174.228 156.706 174.138 156.573 174 156.549C173.959 156.541 172.985 156.371 172.016 156.977C171.898 157.051 171.861 157.208 171.934 157.326C172.008 157.445 172.169 157.479 172.283 157.408C173.083 156.908 173.9 157.047 173.908 157.049C173.971 157.057 174.03 157.047 174.079 157.018Z" fill="#0B0755"/>
<path d="M176.372 160.575C176.542 160.589 176.742 160.565 176.978 160.483C177.025 160.467 177.05 160.416 177.033 160.369C177.017 160.322 176.966 160.298 176.919 160.314C176.101 160.596 175.803 160.098 175.739 159.963C176.164 158.924 175.762 157.791 175.746 157.742C175.729 157.696 175.676 157.673 175.631 157.689C175.584 157.706 175.56 157.757 175.578 157.804C175.582 157.816 175.984 158.947 175.562 159.928C175.554 159.949 175.552 159.973 175.56 159.994C175.562 160.002 175.764 160.526 176.372 160.575Z" fill="#DD7A66"/>
<path d="M183.088 203.111C183.088 203.111 182.41 203.474 181.584 203.446C180.759 203.417 178.343 203.003 177.945 203.027C177.547 203.054 175.532 203.654 175.161 203.533C174.79 203.413 177.143 202.235 177.143 202.235C177.143 202.235 174.994 202.958 174.753 202.615C174.512 202.272 176.749 201.299 176.749 201.299C176.749 201.299 174.588 201.774 174.473 201.407C174.359 201.037 176.449 200.556 176.449 200.556C176.449 200.556 174.494 200.688 174.41 200.395C174.326 200.099 177.198 199.284 178.371 199.45C179.545 199.615 183.159 200.439 183.159 200.439L183.088 203.111Z" fill="#F9A58F"/>
<path d="M168.189 248.608C168.409 249.821 168.62 250.806 168.675 251.27C168.83 252.574 156.952 257.441 156.007 256.333C155.307 255.511 157.48 253.355 159.523 251.259C160.519 252.004 163.123 252.917 168.189 248.608Z" fill="#060633"/>
<path d="M147.449 189.011L170.231 188.811L177.521 205.418L154.739 205.618L147.449 189.011Z" fill="#0B0755"/>
<path d="M173.04 205.448L188.293 205.314L188.284 204.306L173.031 204.44L173.04 205.448Z" fill="#0B0755"/>
<path d="M160.375 196.384C160.788 196.247 161.253 196.531 161.412 197.017C161.573 197.502 161.367 198.006 160.955 198.143C160.543 198.28 160.077 197.996 159.918 197.511C159.757 197.025 159.963 196.521 160.375 196.384Z" fill="white"/>
<path d="M355.892 335.241C355.892 335.241 364.656 339.123 366.66 339.623C368.664 340.123 375.172 339.247 371.917 335.241C368.662 331.235 365.907 333.363 360.023 330.357C354.141 327.353 355.892 335.241 355.892 335.241Z" fill="black"/>
<path d="M333.772 313.05C333.772 313.05 317.151 309.389 313.865 318.779C310.579 328.169 326.788 332.563 329.796 333.238C332.804 333.914 339.719 334.489 341.282 334.991C342.847 335.493 348.668 335.993 349.482 336.369C350.297 336.745 358.685 338.685 358.685 338.685L364.944 330.11L358.434 324.565L355.656 314.354L333.772 313.05Z" fill="#E85B54"/>
<path d="M346.356 273.894C346.356 273.894 359.877 273.143 366.451 282.72C373.024 292.298 378.094 300.937 369.079 309.201C360.065 317.464 347.483 313.331 347.483 313.331L330.768 314.364C330.768 314.364 313.49 313.144 317.623 296.992C321.756 280.843 331.834 274.271 346.356 273.894Z" fill="#F8A52D"/>
<path d="M361.191 292.674H330.613C330.164 292.674 329.799 293.039 329.799 293.488V314.77C329.799 315.219 330.164 315.585 330.613 315.585H361.191C361.64 315.585 362.006 315.219 362.006 314.77V293.488C362.006 293.039 361.64 292.674 361.191 292.674Z" fill="#060633"/>
<path d="M337.716 337.244C337.716 337.244 328.953 341.126 326.949 341.626C324.944 342.126 318.436 341.25 321.691 337.244C324.946 333.238 327.702 335.367 333.585 332.362C339.469 329.356 337.716 337.244 337.716 337.244Z" fill="black"/>
<path d="M355.649 302.08C355.619 302.08 355.59 302.068 355.568 302.044C355.529 301.999 355.533 301.929 355.578 301.891C362.766 295.543 367.221 296.29 367.407 296.325C367.466 296.335 367.505 296.392 367.494 296.452C367.484 296.511 367.427 296.55 367.368 296.539C367.325 296.531 362.821 295.786 355.723 302.054C355.7 302.07 355.674 302.08 355.649 302.08Z" fill="#060633"/>
<path d="M335.841 302.08C335.813 302.08 335.786 302.07 335.764 302.047C331.239 297.523 324.337 295.988 324.268 295.974C324.208 295.962 324.172 295.902 324.184 295.845C324.196 295.786 324.257 295.749 324.313 295.762C324.382 295.776 331.345 297.323 335.917 301.894C335.96 301.937 335.96 302.007 335.917 302.047C335.897 302.068 335.87 302.08 335.841 302.08Z" fill="#060633"/>
<path d="M357.999 294.231C357.948 294.231 357.903 294.197 357.892 294.146L356.766 288.754C356.754 288.694 356.792 288.637 356.85 288.625C356.907 288.611 356.966 288.65 356.978 288.709L358.105 294.101C358.117 294.16 358.08 294.217 358.019 294.229C358.013 294.231 358.005 294.231 357.999 294.231Z" fill="#060633"/>
<path d="M332.646 295.319C332.643 295.319 332.639 295.319 332.637 295.319C332.578 295.315 332.533 295.262 332.537 295.203L333.007 289.38C333.011 289.321 333.068 289.276 333.123 289.28C333.184 289.284 333.227 289.337 333.223 289.396L332.754 295.219C332.748 295.276 332.701 295.319 332.646 295.319Z" fill="#060633"/>
<path d="M331.531 265.777C331.531 265.777 330.508 265.177 330.221 265.765C329.488 267.265 331.251 267.871 332.17 267.747L331.531 265.777Z" fill="#F0C0B3"/>
<path d="M352.737 321.83C352.731 321.83 352.723 321.83 352.717 321.828C351.911 321.667 349.919 321.012 348.164 320.434C347.184 320.112 346.337 319.834 345.87 319.697C344.596 319.328 339.231 318.83 339.176 318.824C339.064 318.801 329.041 316.816 327.925 316.569C327.865 316.556 327.829 316.497 327.843 316.438C327.855 316.379 327.912 316.344 327.974 316.354C329.086 316.601 339.106 318.587 339.209 318.607C339.419 318.626 344.637 319.112 345.931 319.485C346.403 319.622 347.252 319.899 348.233 320.224C349.899 320.771 351.97 321.452 352.762 321.612C352.821 321.624 352.86 321.681 352.848 321.74C352.835 321.793 352.788 321.83 352.737 321.83Z" fill="#060633"/>
<path d="M347.672 273.868C345.982 270.453 345.11 266.7 345.065 262.892C345.049 261.602 344.949 260.157 344.82 258.526C344.773 257.192 344.396 255.845 343.639 254.602C341.598 251.253 337.353 249.863 333.726 251.351C329.371 253.136 327.496 258.194 329.53 262.353C329.575 262.447 329.624 262.539 329.675 262.631L329.667 262.633C330.836 265.022 333.32 273.772 338.575 272.349L339.296 275.896C339.294 275.896 343.543 277.098 347.672 273.868Z" fill="#F0C0B3"/>
<path d="M332.392 264.541C332.249 264.251 332.37 263.9 332.662 263.757C332.951 263.614 333.302 263.734 333.445 264.026C333.588 264.316 333.468 264.667 333.176 264.81C332.884 264.951 332.535 264.83 332.392 264.541Z" fill="#060633"/>
<path d="M339.351 262.768C339.208 262.478 339.329 262.127 339.621 261.984C339.91 261.841 340.261 261.961 340.404 262.253C340.547 262.543 340.427 262.894 340.135 263.037C339.845 263.178 339.494 263.057 339.351 262.768Z" fill="#060633"/>
<path d="M336.989 269.221C336.587 269.221 336.155 269.123 335.704 268.88C335.64 268.845 335.616 268.766 335.651 268.703C335.685 268.639 335.765 268.617 335.828 268.65C337.918 269.778 339.534 267.511 339.602 267.413C339.643 267.354 339.724 267.339 339.783 267.38C339.843 267.421 339.857 267.503 339.816 267.562C339.8 267.582 338.636 269.221 336.989 269.221Z" fill="#060633"/>
<path d="M344.906 255.583L345.329 261.312L343.884 261.691L340.004 255.761L344.906 255.583Z" fill="black"/>
<path d="M343.604 261.634C343.606 261.343 343.722 261.065 343.918 260.849C344.32 260.402 345.093 259.751 345.996 260.061C347.32 260.516 346.683 263.747 344.342 263.441C344.342 263.441 343.591 263.183 343.604 261.634Z" fill="#F0C0B3"/>
<path d="M336.712 266.918C336.563 266.918 336.402 266.896 336.228 266.847C335.998 266.779 335.865 266.694 335.798 266.571C335.704 266.396 335.765 266.192 335.842 265.932C335.987 265.453 336.206 264.728 335.781 263.479C335.759 263.412 335.796 263.336 335.863 263.314C335.93 263.291 336.006 263.326 336.028 263.396C336.479 264.722 336.236 265.526 336.091 266.008C336.028 266.216 335.983 266.367 336.026 266.447C336.057 266.502 336.149 266.553 336.3 266.598C337.23 266.867 337.683 266.173 337.702 266.145C337.74 266.083 337.82 266.065 337.881 266.104C337.943 266.143 337.961 266.222 337.922 266.283C337.918 266.287 337.514 266.918 336.712 266.918Z" fill="#ED836E"/>
<path d="M338.231 261.722C338.097 261.722 337.966 261.653 337.893 261.527C337.784 261.339 337.848 261.1 338.035 260.992C339.487 260.153 340.858 260.71 340.915 260.735C341.115 260.818 341.209 261.047 341.125 261.247C341.042 261.445 340.813 261.541 340.615 261.457C340.568 261.439 339.533 261.031 338.427 261.669C338.366 261.706 338.299 261.722 338.231 261.722Z" fill="#060633"/>
<path d="M331.144 264.4C331.065 264.4 330.983 264.375 330.914 264.324C330.74 264.196 330.701 263.951 330.83 263.777C331.703 262.583 332.903 262.359 332.952 262.351C333.167 262.314 333.369 262.455 333.406 262.667C333.442 262.879 333.301 263.081 333.091 263.12C333.075 263.124 332.14 263.312 331.461 264.238C331.383 264.344 331.265 264.4 331.144 264.4Z" fill="#060633"/>
<path d="M344.322 254.004C344.82 253.32 344.457 252.195 343.652 251.932C343.542 251.895 343.426 251.873 343.332 251.806C343.201 251.712 343.138 251.552 343.083 251.401C342.965 251.077 342.846 250.752 342.726 250.426C342.689 250.324 342.646 250.214 342.556 250.148C342.477 250.091 342.375 250.079 342.279 250.071C341.718 250.014 341.099 249.973 340.642 250.301C340.034 249.93 339.373 249.544 338.663 249.593C338.436 249.61 338.214 249.669 337.985 249.673C337.107 249.687 336.281 248.875 335.45 249.161C335.234 249.234 335.048 249.377 334.85 249.489C334.269 249.816 333.581 249.871 332.942 250.065C332.305 250.259 331.648 250.679 331.534 251.334C331.509 251.473 331.509 251.624 331.432 251.744C331.358 251.859 331.23 251.922 331.105 251.975C330.426 252.267 329.675 252.448 329.121 252.938C328.568 253.43 328.332 254.391 328.881 254.885C328.44 255.073 328.036 255.377 327.805 255.795C327.574 256.214 327.54 256.757 327.787 257.167C327.836 257.249 327.897 257.33 327.901 257.424C327.909 257.598 327.732 257.714 327.591 257.818C326.928 258.306 326.752 259.345 327.221 260.022C327.321 260.169 327.45 260.302 327.501 260.473C327.546 260.622 327.525 260.783 327.542 260.938C327.587 261.365 327.944 261.74 328.368 261.808C328.889 261.889 329.375 261.555 329.797 261.236C329.807 261.436 330.056 261.52 330.256 261.532C331.497 261.598 332.717 260.671 332.987 259.459C333.701 259.522 334.585 259.5 334.918 258.863C334.989 258.726 335.024 258.573 335.06 258.42C335.179 257.906 335.295 257.391 335.413 256.879C335.634 256.838 335.822 257.057 335.887 257.271C335.952 257.485 335.95 257.722 336.056 257.92C336.313 258.402 336.999 258.379 337.538 258.289C337.84 258.238 338.15 258.187 338.418 258.036C338.685 257.885 338.907 257.618 338.914 257.31C339.201 257.779 339.858 257.828 340.405 257.769C341.773 257.622 342.963 257.116 344.138 256.43C344.571 256.177 344.865 256.069 344.94 255.526C345.016 254.963 344.781 254.344 344.322 254.004Z" fill="black"/>
<path d="M358.499 312.205C358.499 312.205 369.891 305.444 376.026 312.832C382.161 320.218 371.269 325.977 368.64 328.357C366.011 330.736 363.005 332.363 359.752 332.738C356.497 333.114 355.495 333.489 351.74 334.742C347.984 335.993 344.854 337.122 344.478 337.371C344.103 337.622 337.968 339.751 337.968 339.751C337.968 339.751 331.709 333.491 331.582 331.612C331.582 331.612 337.717 326.154 339.47 324.565C341.223 322.973 349.611 320.971 351.113 318.967C352.615 316.962 358.499 312.205 358.499 312.205Z" fill="#FA7267"/>
<path d="M346.997 304.129C346.997 303.523 346.505 303.033 345.901 303.033C345.297 303.033 344.805 303.525 344.805 304.129C344.805 304.735 345.297 305.225 345.901 305.225C346.505 305.225 346.997 304.735 346.997 304.129Z" fill="white"/>
</svg>
