<svg width="1060" height="596" viewBox="0 0 1060 596" fill="none" xmlns="http://www.w3.org/2000/svg">
<g clip-path="url(#clip0_41_5980)">
<rect width="1060" height="596" rx="16" fill="#F8F1E4"/>
<path d="M-450 694.979H1478L1477.96 292.228H1455.6V339.036H1431.99V216.824H1402.19V249.334H1391.01V216.824L1383.55 209.019H1358.71V192.119H1342.56V63.4038H1328.9V40H1268.03V69.9078H1246.91V85.5068L1216.48 117.361V305.236H1193.5V194.721H1176.11V307.838H1143.81V184.325H1123.93V202.526H1063.06V115.415H972.374V147.924H957.47V133.626H937.592V145.322H921.447V172.629H902.809V184.325H885.413V245.431H870.509V205.127H776.1V331.242H751.257V193.42L740.077 181.713V158.309H712.751V245.421H674.245V212.922H663.065V245.421H651.884V214.223L636.98 198.623V146.613H627.041V197.323L608.403 216.824V245.431H576.103C572.38 245.431 576.103 167.425 576.103 167.425H496.598V145.322L488.521 153.772V283.144H471.744V251.935H427.023V224.629L409.016 205.773V111.512H398.456V82.9052H369.879V300.033H351.241V228.521H340.061V189.518H282.917V202.515H253.099V223.318H228.256V251.925L176.087 306.526V197.312H125.159V190.808H115.22V199.914H104.04V285.724H86.643V142.71L71.7392 127.111H44.4138L29.5099 142.71V228.521H18.3294V264.922L2.80505 248.667V207.708H-32.5981L-52.4769 228.51H-88.5006L-107.759 248.667H-117.078V227.22H-133.223V206.418H-148.126V228.521H-212.717V284.434H-231.354V101.106H-253.715L-290.36 62.7481V99.805H-307.125V298.732H-323.27V259.729H-344.39V294.84H-359.294V236.336H-379.173L-398.431 256.493H-420.14V320.856H-431.32V268.846H-449.958L-450 695V694.979Z" fill="#FAEDCC"/>
<rect y="436" width="1060" height="160" fill="#A7E3CD"/>
<g opacity="0.78">
<path d="M813.128 246.267H795.559C791.917 246.267 788.965 243.315 788.965 239.673V213.265C788.965 209.623 791.917 206.671 795.559 206.671H813.128C816.77 206.671 819.722 209.623 819.722 213.265V239.673C819.722 239.673 819.722 239.673 819.722 239.673C819.721 243.315 816.769 246.267 813.128 246.267Z" fill="#C1E2F4" stroke="black"/>
<path d="M794.93 240.815L795.456 241.879L796.63 242.05L795.78 242.878L795.981 244.048L794.93 243.496L793.88 244.048L794.081 242.878L793.231 242.05L794.405 241.879L794.93 240.815Z" fill="white" fill-opacity="0.7"/>
<path d="M799.637 240.815L800.162 241.879L801.337 242.05L800.487 242.878L800.687 244.048L799.637 243.496L798.586 244.048L798.787 242.878L797.937 242.05L799.112 241.879L799.637 240.815Z" fill="white" fill-opacity="0.7"/>
<path opacity="0.5" d="M804.343 240.815L804.868 241.879L806.043 242.05L805.193 242.878L805.394 244.048L804.343 243.496L803.293 244.048L803.493 242.878L802.643 242.05L803.818 241.879L804.343 240.815Z" fill="white" fill-opacity="0.7"/>
<path opacity="0.5" d="M809.049 240.815L809.575 241.879L810.749 242.05L809.899 242.878L810.1 244.048L809.049 243.496L807.999 244.048L808.2 242.878L807.35 242.05L808.524 241.879L809.049 240.815Z" fill="white" fill-opacity="0.7"/>
<path opacity="0.5" d="M813.756 240.815L814.281 241.879L815.455 242.05L814.606 242.878L814.806 244.048L813.756 243.496L812.705 244.048L812.906 242.878L812.056 242.05L813.23 241.879L813.756 240.815Z" fill="white" fill-opacity="0.7"/>
<path d="M814.73 232.107H793.957V232.943H814.73V232.107Z" fill="white" fill-opacity="0.7"/>
<path d="M814.73 234.77H793.957V235.606H814.73V234.77Z" fill="white" fill-opacity="0.7"/>
<path d="M807.211 237.433H793.957V238.269H807.211V237.433Z" fill="white" fill-opacity="0.7"/>
<path d="M804.343 209.148L794.265 219.792H796.195V230.266H801.851V221.813H807.22V230.266H812.491V219.792H814.421L804.343 209.148Z" fill="#F5514C"/>
</g>
<g opacity="0.78">
<path d="M624.77 225.096H607.201C603.56 225.096 600.607 222.144 600.607 218.502V192.094C600.607 188.452 603.56 185.5 607.201 185.5H624.77C628.412 185.5 631.364 188.452 631.364 192.094V218.502C631.364 218.502 631.364 218.502 631.364 218.502C631.363 222.144 628.411 225.096 624.77 225.096Z" fill="#C1E2F4" stroke="black"/>
<path d="M606.573 219.644L607.098 220.709L608.272 220.879L607.422 221.708L607.623 222.877L606.573 222.325L605.522 222.877L605.723 221.708L604.873 220.879L606.047 220.709L606.573 219.644Z" fill="white" fill-opacity="0.7"/>
<path d="M611.279 219.644L611.804 220.709L612.979 220.879L612.129 221.708L612.329 222.877L611.279 222.325L610.228 222.877L610.429 221.708L609.579 220.879L610.754 220.709L611.279 219.644Z" fill="white" fill-opacity="0.7"/>
<path d="M615.985 219.644L616.51 220.709L617.685 220.879L616.835 221.708L617.036 222.877L615.985 222.325L614.935 222.877L615.135 221.708L614.285 220.879L615.46 220.709L615.985 219.644Z" fill="white" fill-opacity="0.7"/>
<path opacity="0.5" d="M620.691 219.644L621.217 220.709L622.391 220.879L621.541 221.708L621.742 222.877L620.691 222.325L619.641 222.877L619.842 221.708L618.992 220.879L620.166 220.709L620.691 219.644Z" fill="white" fill-opacity="0.7"/>
<path opacity="0.5" d="M625.398 219.644L625.923 220.709L627.098 220.879L626.248 221.708L626.448 222.877L625.398 222.325L624.347 222.877L624.548 221.708L623.698 220.879L624.873 220.709L625.398 219.644Z" fill="white" fill-opacity="0.7"/>
<path d="M626.372 210.936H605.599V211.772H626.372V210.936Z" fill="white" fill-opacity="0.7"/>
<path d="M626.372 213.599H605.599V214.435H626.372V213.599Z" fill="white" fill-opacity="0.7"/>
<path d="M618.853 216.262H605.599V217.098H618.853V216.262Z" fill="white" fill-opacity="0.7"/>
<path d="M615.985 187.978L605.907 198.622H607.837V209.095H613.493V200.643H618.862V209.095H624.133V198.622H626.063L615.985 187.978Z" fill="#F5514C"/>
</g>
<g opacity="0.78">
<path d="M264.399 228.434V228.434C264.4 232.074 261.448 235.027 257.806 235.027H240.237C236.595 235.027 233.643 232.074 233.643 228.433V202.026C233.643 198.384 236.595 195.432 240.237 195.432H257.806C261.447 195.432 264.399 198.384 264.399 202.026V228.434Z" fill="#D3E1F1" stroke="black"/>
<path d="M239.609 229.575L240.134 230.639L241.309 230.81L240.459 231.639L240.66 232.808L239.609 232.256L238.558 232.808L238.759 231.639L237.909 230.81L239.084 230.639L239.609 229.575Z" fill="white" fill-opacity="0.7"/>
<path d="M244.315 229.575L244.841 230.639L246.015 230.81L245.165 231.639L245.366 232.808L244.315 232.256L243.265 232.808L243.466 231.639L242.616 230.81L243.79 230.639L244.315 229.575Z" fill="white" fill-opacity="0.7"/>
<path opacity="0.5" d="M249.022 229.575L249.547 230.639L250.721 230.81L249.872 231.639L250.072 232.808L249.022 232.256L247.971 232.808L248.172 231.639L247.322 230.81L248.496 230.639L249.022 229.575Z" fill="white" fill-opacity="0.7"/>
<path opacity="0.5" d="M253.728 229.575L254.253 230.639L255.428 230.81L254.578 231.639L254.778 232.808L253.728 232.256L252.678 232.808L252.878 231.639L252.028 230.81L253.203 230.639L253.728 229.575Z" fill="white" fill-opacity="0.7"/>
<path opacity="0.5" d="M258.434 229.575L258.959 230.639L260.134 230.81L259.284 231.639L259.485 232.808L258.434 232.256L257.384 232.808L257.584 231.639L256.735 230.81L257.909 230.639L258.434 229.575Z" fill="white" fill-opacity="0.7"/>
<path d="M259.408 220.867H238.635V221.703H259.408V220.867Z" fill="white" fill-opacity="0.7"/>
<path d="M259.408 223.53H238.635V224.366H259.408V223.53Z" fill="white" fill-opacity="0.7"/>
<path d="M251.889 226.193H238.635V227.029H251.889V226.193Z" fill="white" fill-opacity="0.7"/>
<path d="M249.022 197.909L238.944 208.552H240.874V219.026H246.529V210.574H251.899V219.026H257.17V208.552H259.099L249.022 197.909Z" fill="#F5514C"/>
</g>
<path d="M747.747 575.03V575.53H748.247H786.562V578.123H786.482H786.274L786.128 578.269L782.913 581.484H779.354L776.268 578.398L776.122 578.252H775.915H772.395H771.895V578.752V581.484H769.968V579.11V578.61H769.468H766.884H766.676L766.53 578.756L764.119 581.167H759.381L756.697 578.483L756.344 578.13L755.99 578.483L753.295 581.179L744.985 572.869L744.839 572.723H744.632H743.393V571.099H764.821H786.562V573.149H748.247H747.747V573.649V575.03Z" fill="#8C94AD" stroke="black"/>
<path d="M787.062 573.649H748.247V575.031H787.062V573.649Z" fill="#353842"/>
<path d="M787.562 570.599V564.119L805.82 553.577L824.078 564.119V585.201L805.82 595.743L787.562 585.201V578.622V575.03V573.648V570.599ZM818.279 579.053C820.704 579.053 822.669 577.088 822.669 574.657C822.669 572.232 820.704 570.268 818.279 570.268C815.857 570.268 813.883 572.232 813.883 574.657C813.883 577.089 815.856 579.053 818.279 579.053Z" fill="#8C94AD" stroke="black"/>
<g filter="url(#filter0_d_41_5980)">
<path d="M705.783 396.324L702.525 391.842L699.266 396.324C690.314 408.647 685.482 423.479 685.482 438.712C685.482 445.628 687.73 452.358 691.875 457.889H713.175C717.32 452.358 719.567 445.628 719.567 438.712C719.567 423.479 714.748 408.647 705.783 396.324Z" fill="#D3F1E6" stroke="#2B2065" stroke-width="2" stroke-linecap="round" stroke-linejoin="round"/>
<path d="M674.795 379.693L670.649 374L666.504 379.693C655.13 395.337 649 414.178 649 433.53C649 442.307 651.847 450.859 657.115 457.876H684.171C689.44 450.847 692.286 442.307 692.286 433.53C692.286 414.19 686.156 395.337 674.782 379.693H674.795Z" fill="#A7E3CD" stroke="#2B2065" stroke-width="2" stroke-linecap="round" stroke-linejoin="round"/>
<path d="M670.663 459.125C671.349 459.125 671.911 458.563 671.911 457.876V415.938C671.911 415.251 671.349 414.689 670.663 414.689C669.976 414.689 669.414 415.251 669.414 415.938V457.876C669.414 458.563 669.976 459.125 670.663 459.125Z" fill="#2B2065"/>
<path d="M670.663 452.133C670.988 452.133 671.3 452.008 671.549 451.771L685.533 437.788C686.02 437.301 686.02 436.514 685.533 436.027C685.046 435.54 684.259 435.54 683.773 436.027L669.789 450.011C669.302 450.498 669.302 451.284 669.789 451.771C670.039 452.021 670.351 452.133 670.675 452.133H670.663Z" fill="#2B2065"/>
</g>
<path d="M1077.32 434.647L1077.12 436.318L1078.68 435.694L1078.68 435.694L1078.68 435.693L1078.69 435.689L1078.74 435.671C1078.78 435.655 1078.85 435.63 1078.93 435.599C1079.1 435.536 1079.36 435.445 1079.68 435.336C1080.34 435.118 1081.28 434.83 1082.41 434.55C1084.69 433.99 1087.72 433.475 1090.79 433.622C1093.85 433.768 1096.88 434.571 1099.26 436.563C1101.46 438.399 1103.21 441.337 1103.87 446H931.169H767.063C772.666 439.604 781.665 437.569 789.723 437.247C794.036 437.074 798.004 437.397 800.897 437.763C802.342 437.946 803.515 438.14 804.325 438.287C804.729 438.361 805.043 438.423 805.254 438.467C805.359 438.488 805.439 438.505 805.491 438.516L805.55 438.529L805.563 438.532L805.566 438.533L805.566 438.533L805.567 438.533L807.808 439.04L806.652 437.055L806.651 437.055L806.651 437.054L806.651 437.054L806.648 437.049L806.634 437.024C806.621 437 806.6 436.963 806.573 436.914C806.518 436.814 806.438 436.663 806.339 436.466C806.14 436.073 805.865 435.496 805.569 434.776C804.976 433.333 804.305 431.334 803.979 429.092C803.327 424.624 804.04 419.298 809.368 415.335C814.592 411.449 821.304 413.074 827.032 415.987C829.854 417.422 832.337 419.122 834.118 420.468C835.007 421.14 835.717 421.721 836.204 422.132C836.447 422.338 836.634 422.501 836.759 422.612C836.821 422.667 836.869 422.709 836.899 422.737L836.933 422.768L836.941 422.775L836.943 422.776L836.943 422.776L836.943 422.777L839.501 425.13L838.584 421.777L838.584 421.776L838.583 421.771L838.577 421.751L838.556 421.669C838.536 421.596 838.507 421.485 838.47 421.34C838.395 421.049 838.288 420.62 838.157 420.068C837.895 418.964 837.54 417.371 837.169 415.424C836.425 411.528 835.618 406.228 835.358 400.597C835.097 394.957 835.388 389.036 836.809 383.875C838.23 378.716 840.751 374.41 844.884 371.836C848.959 369.297 854.457 369.259 860.618 370.829C866.753 372.393 873.354 375.504 879.456 378.987C885.549 382.466 891.101 386.291 895.132 389.249C897.147 390.727 898.779 391.987 899.906 392.876C900.47 393.321 900.908 393.672 901.203 393.913C901.351 394.033 901.464 394.125 901.539 394.187L901.623 394.256L901.644 394.273L901.649 394.278L901.65 394.278C901.65 394.279 901.65 394.279 902.29 393.51C903.242 393.203 903.242 393.203 903.242 393.204L903.242 393.203L903.241 393.202L903.239 393.195L903.228 393.16C903.218 393.128 903.203 393.079 903.184 393.015C903.145 392.886 903.09 392.694 903.022 392.448C902.888 391.955 902.708 391.246 902.53 390.389C902.172 388.67 901.827 386.385 901.856 384.075C901.886 381.751 902.292 379.501 903.348 377.772C904.371 376.095 906.054 374.822 908.869 374.482C914.786 373.768 920.166 375.838 924.117 378.146C926.086 379.296 927.678 380.492 928.776 381.4C929.325 381.853 929.749 382.234 930.034 382.498C930.176 382.63 930.283 382.734 930.354 382.802C930.389 382.837 930.415 382.863 930.431 382.879L930.449 382.897L930.453 382.901L930.453 382.901L930.453 382.901L930.453 382.901L931.186 383.651L931.9 382.882C940.407 373.727 952.557 368 966.038 368C984.935 368 1001.2 379.258 1008.53 395.443L1009.06 396.604L1010.06 395.817C1015.57 391.493 1022.03 390.383 1026.86 393.18C1031.72 395.988 1033.99 402.182 1032.97 409.156L1032.73 410.835L1034.31 410.236C1039.34 408.338 1045.04 407.257 1051.08 407.257C1056.64 407.257 1063.75 409.808 1069.21 414.551C1074.63 419.271 1078.33 426.089 1077.32 434.647Z" fill="#8BCCB4" stroke="black" stroke-width="2"/>
<path d="M204.318 434.647L204.119 436.318L205.682 435.694L205.682 435.694L205.684 435.693L205.694 435.689L205.74 435.671C205.782 435.655 205.847 435.63 205.932 435.599C206.103 435.536 206.358 435.445 206.684 435.336C207.337 435.118 208.276 434.83 209.412 434.55C211.69 433.99 214.718 433.475 217.785 433.622C220.854 433.768 223.882 434.571 226.263 436.563C228.457 438.399 230.211 441.337 230.873 446H58.1694H-105.937C-100.334 439.604 -91.335 437.569 -83.2766 437.247C-78.9637 437.074 -74.9955 437.397 -72.1029 437.763C-70.6579 437.946 -69.4848 438.14 -68.6754 438.287C-68.2708 438.361 -67.9573 438.423 -67.7464 438.467C-67.641 438.488 -67.5613 438.505 -67.5087 438.516L-67.4503 438.529L-67.4367 438.532L-67.4338 438.533L-67.4336 438.533L-67.4334 438.533L-65.1919 439.04L-66.3484 437.055L-66.3485 437.055L-66.3487 437.054L-66.3488 437.054L-66.3516 437.049L-66.366 437.024C-66.3793 437 -66.4 436.963 -66.4272 436.914C-66.4816 436.814 -66.5619 436.663 -66.6613 436.466C-66.8602 436.073 -67.1347 435.496 -67.4305 434.776C-68.0238 433.333 -68.6946 431.334 -69.0214 429.092C-69.6727 424.624 -68.9597 419.298 -63.6323 415.335C-58.4083 411.449 -51.6957 413.074 -45.9681 415.987C-43.1456 417.422 -40.663 419.122 -38.8821 420.468C-37.9932 421.14 -37.2828 421.721 -36.7963 422.132C-36.5531 422.338 -36.3662 422.501 -36.2411 422.612C-36.1785 422.667 -36.1315 422.709 -36.1006 422.737L-36.0666 422.768L-36.0588 422.775L-36.0574 422.776L-36.0573 422.776L-36.0571 422.777L-33.4995 425.13L-34.4156 421.777L-34.4159 421.776L-34.4171 421.771L-34.4225 421.751L-34.4445 421.669C-34.464 421.596 -34.4929 421.485 -34.5301 421.34C-34.6046 421.049 -34.712 420.62 -34.8429 420.068C-35.1046 418.964 -35.4598 417.371 -35.8314 415.424C-36.5753 411.528 -37.3825 406.228 -37.6425 400.597C-37.9029 394.957 -37.6118 389.036 -36.1906 383.875C-34.77 378.716 -32.2486 374.41 -28.1162 371.836C-24.0413 369.297 -18.543 369.259 -12.3821 370.829C-6.24683 372.393 0.353539 375.504 6.4556 378.987C12.549 382.466 18.1006 386.291 22.132 389.249C24.1466 390.727 25.7789 391.987 26.9064 392.876C27.4702 393.321 27.9076 393.672 28.2033 393.913C28.3512 394.033 28.4636 394.125 28.5387 394.187L28.6231 394.256L28.6439 394.273L28.6488 394.278L28.6499 394.278C28.6501 394.279 28.6501 394.279 29.2901 393.51C30.2418 393.203 30.2419 393.203 30.2419 393.204L30.2418 393.203L30.2415 393.202L30.239 393.195L30.2281 393.16C30.2182 393.128 30.2033 393.079 30.184 393.015C30.1454 392.886 30.0895 392.694 30.0223 392.448C29.8877 391.955 29.7079 391.246 29.5297 390.389C29.1721 388.67 28.8275 386.385 28.8564 384.075C28.8856 381.751 29.2922 379.501 30.3475 377.772C31.3711 376.095 33.0538 374.822 35.869 374.482C41.7858 373.768 47.166 375.838 51.1172 378.146C53.0859 379.296 54.6781 380.492 55.7765 381.4C56.3252 381.853 56.7491 382.234 57.0336 382.498C57.1759 382.63 57.2831 382.734 57.3536 382.802C57.3888 382.837 57.4149 382.863 57.4315 382.879L57.4492 382.897L57.4527 382.901L57.4527 382.901L57.453 382.901L57.4531 382.901L58.1861 383.651L58.9003 382.882C67.4074 373.727 79.5567 368 93.0383 368C111.935 368 128.205 379.258 135.534 395.443L136.059 396.604L137.062 395.817C142.572 391.493 149.026 390.383 153.863 393.18C158.717 395.988 160.987 402.182 159.971 409.156L159.726 410.835L161.313 410.236C166.344 408.338 172.035 407.257 178.083 407.257C183.645 407.257 190.754 409.808 196.205 414.551C201.627 419.271 205.335 426.089 204.318 434.647Z" fill="#8BCCB4" stroke="black" stroke-width="2"/>
<path d="M725.858 542.81V312.702H879.735V542.81H725.858Z" fill="#EFEBE9" stroke="black" stroke-width="2"/>
<path d="M859.223 311.702H724.858V530.769H859.223V311.702Z" fill="#EFEBE9"/>
<path d="M870.086 344.269H735.508C734.493 344.269 733.67 343.446 733.67 342.431C733.67 341.416 734.493 340.593 735.508 340.593H870.086C871.101 340.593 871.924 341.416 871.924 342.431C871.923 343.446 871.101 344.269 870.086 344.269Z" fill="#8C94AD"/>
<path d="M870.086 354.305H735.508C734.493 354.305 733.67 353.482 733.67 352.468C733.67 351.453 734.493 350.63 735.508 350.63H870.086C871.101 350.63 871.924 351.453 871.924 352.468C871.923 353.483 871.101 354.305 870.086 354.305Z" fill="#8C94AD"/>
<path d="M870.086 364.342H735.508C734.493 364.342 733.67 363.519 733.67 362.504C733.67 361.489 734.493 360.667 735.508 360.667H870.086C871.101 360.667 871.924 361.49 871.924 362.504C871.923 363.519 871.101 364.342 870.086 364.342Z" fill="#8C94AD"/>
<path d="M870.086 374.378H735.508C734.493 374.378 733.67 373.555 733.67 372.54C733.67 371.525 734.493 370.702 735.508 370.702H870.086C871.101 370.702 871.924 371.525 871.924 372.54C871.923 373.555 871.101 374.378 870.086 374.378Z" fill="#8C94AD"/>
<path d="M870.086 384.413H735.508C734.493 384.413 733.67 383.59 733.67 382.575C733.67 381.56 734.493 380.738 735.508 380.738H870.086C871.101 380.738 871.924 381.561 871.924 382.575C871.923 383.59 871.101 384.413 870.086 384.413Z" fill="#8C94AD"/>
<path d="M870.086 403.149H735.508C734.493 403.149 733.67 402.326 733.67 401.311C733.67 400.296 734.493 399.474 735.508 399.474H870.086C871.101 399.474 871.924 400.297 871.924 401.311C871.923 402.326 871.101 403.149 870.086 403.149Z" fill="#8C94AD"/>
<path d="M870.086 413.185H735.508C734.493 413.185 733.67 412.362 733.67 411.347C733.67 410.332 734.493 409.509 735.508 409.509H870.086C871.101 409.509 871.924 410.332 871.924 411.347C871.923 412.363 871.101 413.185 870.086 413.185Z" fill="#8C94AD"/>
<path d="M870.086 423.221H735.508C734.493 423.221 733.67 422.398 733.67 421.384C733.67 420.369 734.493 419.546 735.508 419.546H870.086C871.101 419.546 871.924 420.369 871.924 421.384C871.923 422.399 871.101 423.221 870.086 423.221Z" fill="#8C94AD"/>
<path d="M870.086 433.258H735.508C734.493 433.258 733.67 432.435 733.67 431.42C733.67 430.405 734.493 429.583 735.508 429.583H870.086C871.101 429.583 871.924 430.406 871.924 431.42C871.923 432.435 871.101 433.258 870.086 433.258Z" fill="#8C94AD"/>
<path d="M870.086 443.293H735.508C734.493 443.293 733.67 442.47 733.67 441.455C733.67 440.44 734.493 439.618 735.508 439.618H870.086C871.101 439.618 871.924 440.441 871.924 441.455C871.923 442.47 871.101 443.293 870.086 443.293Z" fill="#8C94AD"/>
<path d="M870.235 463.866H735.359C734.427 463.866 733.671 463.11 733.671 462.177V461.879C733.671 460.946 734.427 460.19 735.36 460.19H870.236C871.168 460.19 871.924 460.946 871.924 461.878V462.176C871.923 463.11 871.167 463.866 870.235 463.866Z" fill="#8C94AD"/>
<path d="M870.086 473.903H735.508C734.493 473.903 733.67 473.08 733.67 472.065C733.67 471.05 734.493 470.228 735.508 470.228H870.086C871.101 470.228 871.924 471.051 871.924 472.065C871.923 473.08 871.101 473.903 870.086 473.903Z" fill="#8C94AD"/>
<path d="M870.086 483.939H735.508C734.493 483.939 733.67 483.116 733.67 482.101C733.67 481.086 734.493 480.263 735.508 480.263H870.086C871.101 480.263 871.924 481.086 871.924 482.101C871.923 483.116 871.101 483.939 870.086 483.939Z" fill="#8C94AD"/>
<path d="M870.086 493.975H735.508C734.493 493.975 733.67 493.152 733.67 492.137C733.67 491.122 734.493 490.3 735.508 490.3H870.086C871.101 490.3 871.924 491.123 871.924 492.137C871.923 493.153 871.101 493.975 870.086 493.975Z" fill="#8C94AD"/>
<path d="M870.086 504.01H735.508C734.493 504.01 733.67 503.187 733.67 502.172C733.67 501.157 734.493 500.334 735.508 500.334H870.086C871.101 500.334 871.924 501.157 871.924 502.172C871.923 503.187 871.101 504.01 870.086 504.01Z" fill="#8C94AD"/>
<path d="M858.35 526.285C858.069 526.669 857.744 526.904 857.346 527.025C857.718 526.007 858.091 524.99 858.463 523.973C858.738 523.221 859.416 522.118 859.17 521.287C858.632 519.471 856.641 521.674 856.17 522.238C854.748 523.937 853.5 525.78 852.457 527.735C852.313 528.005 852.188 528.291 852.022 528.549C851.745 528.977 851.161 529.845 850.619 528.453C850.474 528.081 850.666 527.421 850.718 527.027C850.888 525.729 851.254 524.461 851.691 523.23C852.449 521.094 853.454 519.057 854.24 516.932C854.678 515.748 854.988 513.939 853.241 513.739C851.553 513.546 849.777 515.665 848.726 516.732C847.367 518.112 846.161 519.648 845.131 521.288C842.72 525.128 841.311 529.528 841.034 534.051C841.008 534.483 841.679 534.489 841.705 534.059C841.936 530.294 842.972 526.615 844.748 523.286C845.633 521.626 846.691 520.056 847.908 518.621C849.077 517.244 850.496 515.629 852.08 514.719C852.632 514.402 853.755 513.95 853.969 515.281C854.006 515.515 853.887 515.875 853.826 516.094C853.713 516.499 853.539 516.896 853.386 517.287C853.008 518.253 852.595 519.205 852.191 520.161C851.417 521.992 850.659 523.848 850.251 525.802C850.036 526.833 849.454 528.887 850.427 529.713C851.536 530.654 852.498 529.083 852.94 528.257C854.052 526.175 855.359 524.209 856.896 522.416C857.123 522.151 858.374 520.677 858.448 522.048C858.472 522.493 857.975 523.36 857.818 523.789C857.382 524.98 856.946 526.171 856.51 527.362C856.439 527.557 856.62 527.805 856.829 527.791C857.729 527.729 858.394 527.359 858.926 526.634C859.182 526.282 858.604 525.939 858.35 526.285Z" fill="#8C94AD"/>
<path d="M754.582 524.55H735.911C734.203 524.55 734.168 527.205 735.88 527.205H754.551C756.259 527.205 756.294 524.55 754.582 524.55Z" fill="#8C94AD"/>
<path d="M813 524.55H794.33C792.622 524.55 792.587 527.205 794.299 527.205H812.97C814.677 527.205 814.712 524.55 813 524.55Z" fill="#8C94AD"/>
<path d="M706 530V304H854V530H706Z" fill="#FBFAFA" stroke="black" stroke-width="2"/>
<path d="M728.863 399.019V388.68H733.116C734.032 388.68 734.815 388.828 735.464 389.123C736.124 389.419 736.631 389.842 736.986 390.393C737.34 390.945 737.517 391.599 737.517 392.358C737.517 393.116 737.34 393.771 736.986 394.322C736.631 394.863 736.124 395.282 735.464 395.577C734.815 395.863 734.032 396.006 733.116 396.006H729.926L730.783 395.134V399.019H728.863ZM735.627 399.019L733.013 395.267H735.066L737.695 399.019H735.627ZM730.783 395.341L729.926 394.425H733.028C733.874 394.425 734.509 394.243 734.933 393.879C735.366 393.515 735.583 393.007 735.583 392.358C735.583 391.698 735.366 391.191 734.933 390.836C734.509 390.482 733.874 390.305 733.028 390.305H729.926L730.783 389.359V395.341ZM741.438 392.978H746.578V394.558H741.438V392.978ZM741.586 397.409H747.419V399.019H739.665V388.68H747.213V390.29H741.586V397.409ZM748.098 399.019L752.75 388.68H754.64L759.308 399.019H757.299L753.296 389.699H754.064L750.077 399.019H748.098ZM750.239 396.626L750.756 395.119H756.339L756.856 396.626H750.239ZM760.622 399.019V388.68H762.542V397.394H767.948V399.019H760.622ZM775.318 392.978H780.457V394.558H775.318V392.978ZM775.465 397.409H781.299V399.019H773.545V388.68H781.093V390.29H775.465V397.409ZM786.645 399.166C785.837 399.166 785.064 399.053 784.326 398.827C783.587 398.59 783.002 398.29 782.568 397.926L783.233 396.434C783.647 396.759 784.159 397.03 784.769 397.246C785.379 397.463 786.005 397.571 786.645 397.571C787.186 397.571 787.624 397.512 787.959 397.394C788.294 397.276 788.54 397.118 788.698 396.921C788.855 396.715 788.934 396.483 788.934 396.227C788.934 395.912 788.821 395.661 788.594 395.474C788.368 395.277 788.072 395.124 787.708 395.016C787.354 394.898 786.955 394.79 786.512 394.691C786.079 394.593 785.64 394.479 785.197 394.351C784.764 394.214 784.365 394.041 784.001 393.835C783.647 393.618 783.356 393.332 783.13 392.978C782.903 392.623 782.79 392.171 782.79 391.619C782.79 391.058 782.938 390.546 783.233 390.083C783.538 389.611 783.996 389.236 784.607 388.961C785.227 388.675 786.01 388.532 786.955 388.532C787.575 388.532 788.191 388.611 788.801 388.769C789.411 388.926 789.943 389.153 790.396 389.448L789.791 390.94C789.328 390.664 788.85 390.462 788.358 390.334C787.866 390.196 787.393 390.127 786.94 390.127C786.408 390.127 785.975 390.191 785.64 390.319C785.315 390.447 785.074 390.615 784.917 390.822C784.769 391.028 784.695 391.265 784.695 391.531C784.695 391.846 784.803 392.102 785.02 392.299C785.247 392.486 785.537 392.633 785.891 392.742C786.256 392.85 786.659 392.958 787.103 393.067C787.546 393.165 787.984 393.278 788.417 393.406C788.86 393.534 789.259 393.702 789.613 393.908C789.978 394.115 790.268 394.396 790.485 394.75C790.711 395.105 790.824 395.553 790.824 396.094C790.824 396.646 790.672 397.158 790.367 397.63C790.071 398.093 789.613 398.467 788.993 398.753C788.373 399.028 787.59 399.166 786.645 399.166ZM794.681 399.019V390.305H791.255V388.68H800.028V390.305H796.601V399.019H794.681ZM799.487 399.019L804.14 388.68H806.03L810.697 399.019H808.689L804.686 389.699H805.454L801.466 399.019H799.487ZM801.629 396.626L802.146 395.119H807.729L808.245 396.626H801.629ZM813.59 399.019V390.305H810.164V388.68H818.936V390.305H815.51V399.019H813.59ZM822.15 392.978H827.289V394.558H822.15V392.978ZM822.297 397.409H828.131V399.019H820.377V388.68H827.925V390.29H822.297V397.409Z" fill="#353842"/>
<path d="M729.251 415.433V406.098H730.985V415.433H729.251ZM733.509 415.433V406.098H734.936L740.79 413.286H740.083V406.098H741.803V415.433H740.377L734.523 408.245H735.229V415.433H733.509ZM745.891 410.392H750.545V411.859H745.891V410.392ZM746.038 415.433H744.305V406.098H751.119V407.552H746.038V415.433ZM757.065 415.566C756.336 415.566 755.665 415.446 755.051 415.206C754.438 414.966 753.904 414.633 753.451 414.206C752.998 413.77 752.646 413.264 752.398 412.686C752.149 412.099 752.024 411.459 752.024 410.765C752.024 410.072 752.149 409.436 752.398 408.859C752.646 408.272 752.998 407.765 753.451 407.338C753.904 406.903 754.438 406.565 755.051 406.325C755.665 406.085 756.331 405.965 757.051 405.965C757.78 405.965 758.447 406.085 759.052 406.325C759.665 406.565 760.198 406.903 760.652 407.338C761.105 407.765 761.456 408.272 761.705 408.859C761.954 409.436 762.079 410.072 762.079 410.765C762.079 411.459 761.954 412.099 761.705 412.686C761.456 413.272 761.105 413.779 760.652 414.206C760.198 414.633 759.665 414.966 759.052 415.206C758.447 415.446 757.785 415.566 757.065 415.566ZM757.051 414.046C757.523 414.046 757.958 413.966 758.358 413.806C758.758 413.646 759.105 413.419 759.398 413.126C759.692 412.823 759.918 412.477 760.078 412.086C760.247 411.686 760.332 411.246 760.332 410.765C760.332 410.285 760.247 409.85 760.078 409.459C759.918 409.059 759.692 408.712 759.398 408.419C759.105 408.116 758.758 407.885 758.358 407.725C757.958 407.565 757.523 407.485 757.051 407.485C756.58 407.485 756.145 407.565 755.745 407.725C755.353 407.885 755.007 408.116 754.704 408.419C754.411 408.712 754.18 409.059 754.011 409.459C753.851 409.85 753.771 410.285 753.771 410.765C753.771 411.237 753.851 411.672 754.011 412.072C754.18 412.472 754.411 412.823 754.704 413.126C754.998 413.419 755.345 413.646 755.745 413.806C756.145 413.966 756.58 414.046 757.051 414.046ZM763.916 415.433V406.098H767.756C768.583 406.098 769.29 406.232 769.877 406.498C770.472 406.765 770.93 407.147 771.25 407.645C771.57 408.143 771.73 408.734 771.73 409.419C771.73 410.103 771.57 410.694 771.25 411.192C770.93 411.681 770.472 412.059 769.877 412.326C769.29 412.583 768.583 412.712 767.756 412.712H764.876L765.65 411.926V415.433H763.916ZM770.023 415.433L767.663 412.046H769.517L771.89 415.433H770.023ZM765.65 412.112L764.876 411.286H767.676C768.441 411.286 769.014 411.121 769.397 410.792C769.788 410.463 769.983 410.005 769.983 409.419C769.983 408.823 769.788 408.365 769.397 408.045C769.014 407.725 768.441 407.565 767.676 407.565H764.876L765.65 406.712V412.112ZM773.67 415.433V406.098H775.096L779.177 412.912H778.43L782.444 406.098H783.871L783.884 415.433H782.244L782.231 408.672H782.577L779.164 414.366H778.39L774.923 408.672H775.323V415.433H773.67ZM785.085 415.433L789.286 406.098H790.992L795.206 415.433H793.393L789.779 407.018H790.472L786.872 415.433H785.085ZM787.019 413.272L787.485 411.912H792.526L792.993 413.272H787.019ZM797.818 415.433V407.565H794.724V406.098H802.645V407.565H799.552V415.433H797.818ZM803.946 415.433V406.098H805.68V415.433H803.946ZM812.578 415.566C811.849 415.566 811.178 415.446 810.565 415.206C809.951 414.966 809.418 414.633 808.964 414.206C808.511 413.77 808.16 413.264 807.911 412.686C807.662 412.099 807.538 411.459 807.538 410.765C807.538 410.072 807.662 409.436 807.911 408.859C808.16 408.272 808.511 407.765 808.964 407.338C809.418 406.903 809.951 406.565 810.565 406.325C811.178 406.085 811.845 405.965 812.565 405.965C813.294 405.965 813.961 406.085 814.565 406.325C815.178 406.565 815.712 406.903 816.165 407.338C816.619 407.765 816.97 408.272 817.219 408.859C817.468 409.436 817.592 410.072 817.592 410.765C817.592 411.459 817.468 412.099 817.219 412.686C816.97 413.272 816.619 413.779 816.165 414.206C815.712 414.633 815.178 414.966 814.565 415.206C813.961 415.446 813.298 415.566 812.578 415.566ZM812.565 414.046C813.036 414.046 813.472 413.966 813.872 413.806C814.272 413.646 814.618 413.419 814.912 413.126C815.205 412.823 815.432 412.477 815.592 412.086C815.761 411.686 815.845 411.246 815.845 410.765C815.845 410.285 815.761 409.85 815.592 409.459C815.432 409.059 815.205 408.712 814.912 408.419C814.618 408.116 814.272 407.885 813.872 407.725C813.472 407.565 813.036 407.485 812.565 407.485C812.094 407.485 811.658 407.565 811.258 407.725C810.867 407.885 810.52 408.116 810.218 408.419C809.925 408.712 809.693 409.059 809.525 409.459C809.365 409.85 809.285 410.285 809.285 410.765C809.285 411.237 809.365 411.672 809.525 412.072C809.693 412.472 809.925 412.823 810.218 413.126C810.511 413.419 810.858 413.646 811.258 413.806C811.658 413.966 812.094 414.046 812.565 414.046ZM819.43 415.433V406.098H820.856L826.71 413.286H826.004V406.098H827.724V415.433H826.297L820.443 408.245H821.15V415.433H819.43Z" fill="#353842"/>
<path d="M197.856 405.324L194.597 400.842L191.338 405.324C182.386 417.647 177.555 432.479 177.555 447.712C177.555 454.628 179.802 461.358 183.947 466.889H205.247C209.392 461.358 211.639 454.628 211.639 447.712C211.639 432.479 206.82 417.647 197.856 405.324Z" fill="#D3F1E6" stroke="#2B2065" stroke-width="2" stroke-linecap="round" stroke-linejoin="round"/>
<path d="M109.357 420.331L106.897 416.947L104.438 420.331C97.6457 429.645 94 440.857 94 452.38C94 457.612 95.698 462.693 98.8318 466.876H114.938C118.072 462.693 119.77 457.599 119.77 452.38C119.77 440.869 116.124 429.645 109.344 420.331H109.357Z" fill="#A7E3CD" stroke="#2B2065" stroke-width="2" stroke-linecap="round" stroke-linejoin="round"/>
<path d="M166.869 388.693L162.724 383L158.579 388.693C147.204 404.337 141.074 423.178 141.074 442.53C141.074 451.307 143.921 459.859 149.19 466.876H176.245C181.514 459.847 184.361 451.307 184.361 442.53C184.361 423.19 178.23 404.337 166.856 388.693H166.869Z" fill="#A7E3CD" stroke="#2B2065" stroke-width="2" stroke-linecap="round" stroke-linejoin="round"/>
<path d="M135.856 403.616L132.504 399L129.153 403.616C119.956 416.299 114.999 431.573 114.999 447.262C114.999 454.378 117.301 461.311 121.561 467H143.437C147.698 461.301 149.999 454.378 149.999 447.262C149.999 431.583 145.043 416.299 135.846 403.616H135.856Z" fill="#A7E3CD" stroke="#2B2065" stroke-width="2" stroke-linecap="round" stroke-linejoin="round"/>
<path d="M162.737 468.125C163.423 468.125 163.985 467.563 163.985 466.876V424.938C163.985 424.251 163.423 423.689 162.737 423.689C162.05 423.689 161.488 424.251 161.488 424.938V466.876C161.488 467.563 162.05 468.125 162.737 468.125Z" fill="#2B2065"/>
<path d="M162.737 461.133C163.062 461.133 163.374 461.008 163.624 460.771L177.607 446.788C178.094 446.301 178.094 445.514 177.607 445.027C177.12 444.54 176.334 444.54 175.847 445.027L161.863 459.011C161.376 459.498 161.376 460.284 161.863 460.771C162.113 461.021 162.425 461.133 162.75 461.133H162.737Z" fill="#2B2065"/>
<path d="M132.658 468.124C133.215 468.124 133.672 467.668 133.672 467.11V433.055C133.672 432.497 133.215 432.041 132.658 432.041C132.1 432.041 131.644 432.497 131.644 433.055V467.11C131.644 467.668 132.1 468.124 132.658 468.124Z" fill="#2B2065"/>
<path d="M132.658 462.447C132.922 462.447 133.175 462.345 133.378 462.153L144.733 450.797C145.128 450.402 145.128 449.763 144.733 449.368C144.338 448.972 143.699 448.972 143.304 449.368L131.948 460.723C131.553 461.118 131.553 461.757 131.948 462.153C132.151 462.355 132.405 462.447 132.668 462.447H132.658Z" fill="#2B2065"/>
<path opacity="0.28" d="M576.535 491.565H186.005C183.24 491.565 181 489.324 181 486.56C181 483.795 183.241 481.555 186.005 481.555H576.535C579.3 481.555 581.54 483.796 581.54 486.56C581.541 489.324 579.3 491.565 576.535 491.565Z" fill="#8C94AD" stroke="black" stroke-width="2"/>
<path d="M566.99 285.26V289.037H343.648L317.429 272.874L432.751 206.386L566.99 285.26Z" fill="#EBE0D6" stroke="black" stroke-width="2"/>
<path d="M315.477 272.846L343.364 290.037H406.672L351.138 252.286L315.477 272.846Z" fill="#C1E2F4"/>
<path d="M567.99 284.688L432.756 205.229L351.138 252.286L406.672 290.037H567.99V284.688Z" fill="#C1E2F4"/>
<path d="M309.364 442.69V300.205H563.316V442.69H309.364Z" fill="#EBE0D6" stroke="black" stroke-width="2"/>
<path d="M311.364 440.69V298.205H412.717V440.69H311.364Z" fill="#C1E2F4" stroke="black" stroke-width="2"/>
<path d="M412.717 440.69V298.205H563.316V440.69H412.717Z" fill="#C1E2F4" stroke="black" stroke-width="2"/>
<path d="M565.316 443.69H309.364V481.046H565.316V443.69Z" fill="#EBE0F1"/>
<path d="M202.446 337.952V330.541H383.209V337.952H202.446Z" fill="#F6D8D7" stroke="black" stroke-width="2"/>
<path d="M196.715 329.541V322.13H388.938V329.541H196.715Z" fill="#966436" stroke="black" stroke-width="2"/>
<path d="M318.651 298.2V293.141H564.321V298.2H318.651Z" fill="#EBE0F1" stroke="black" stroke-width="2"/>
<path d="M569.136 285.082H311.919V292.14H569.136V285.082Z" fill="#C1E2F4"/>
<path d="M202 447V339H383V447H202Z" fill="#F6D8D7" stroke="black" stroke-width="2"/>
<path d="M202 483V447H383V483H202Z" fill="#F8F1E4" stroke="black" stroke-width="2"/>
<path d="M293.975 268.4L293.484 268.123L292.993 268.4L185.721 328.869V320.614L293.484 259.948L399.932 319.977V328.151L293.975 268.4Z" fill="#966436" stroke="black" stroke-width="2"/>
<path d="M385.186 321.118H201.752L293.486 269.407L385.186 321.118Z" fill="#F8F1E4" stroke="black" stroke-width="2"/>
<path d="M433.549 214.864L433.058 214.587L432.567 214.864L324.18 275.963L313.956 270.198L433.058 203.148L573.009 282.069V293.508L433.549 214.864Z" fill="#EBE0F1" stroke="black" stroke-width="2"/>
<path d="M294.582 294.418V290.073C297.53 290.865 299.848 293.184 300.639 296.13H296.295C295.89 295.415 295.298 294.823 294.582 294.418Z" fill="#F6D8D7" stroke="black" stroke-width="2"/>
<path d="M291.238 294.418C290.523 294.823 289.93 295.415 289.525 296.13H285.18C285.971 293.183 288.29 290.864 291.238 290.073V294.418Z" fill="#F6D8D7" stroke="black" stroke-width="2"/>
<path d="M291.239 305.533C288.291 304.742 285.972 302.423 285.181 299.475H289.525C289.93 300.192 290.523 300.784 291.239 301.189V305.533Z" fill="#F6D8D7" stroke="black" stroke-width="2"/>
<path d="M294.582 305.533V301.19C295.298 300.784 295.891 300.192 296.296 299.475H300.641C299.849 302.423 297.53 304.742 294.582 305.533Z" fill="#F6D8D7" stroke="black" stroke-width="2"/>
<path d="M541.205 357.207H428.724V421.965H541.205V357.207Z" fill="white"/>
<path d="M541.205 353.321H545.092V357.208V421.965V425.852H541.205H428.724H424.837V421.965V357.207V353.32H428.724H540.705V353.321H541.205ZM541.205 422.465H541.705V421.965V357.208V356.708H541.205H428.724H428.224V357.208V421.965V422.465H428.724H541.205Z" fill="#EBE0F1" stroke="black"/>
<path d="M452.429 422.639V356.643H455.816V422.639H452.429Z" fill="#EBE0F1" stroke="black"/>
<path d="M492.307 422.639V356.643H495.694V422.639H492.307Z" fill="#EBE0F1" stroke="black"/>
<rect x="213" y="366" width="42" height="56.4268" fill="#EBE0F1" stroke="black" stroke-width="2"/>
<rect x="212" y="422" width="44" height="6" fill="#EBE0F1" stroke="black" stroke-width="2"/>
<path d="M213.184 394.783H255.103" stroke="black" stroke-width="2"/>
<path d="M225.681 366.139L225.681 422.274" stroke="black" stroke-width="2"/>
<path d="M242.317 366.139L242.317 422.274" stroke="black" stroke-width="2"/>
<rect x="331" y="366" width="42" height="56.4268" fill="#EBE0F1" stroke="black" stroke-width="2"/>
<rect x="330" y="422" width="44" height="6" fill="#EBE0F1" stroke="black" stroke-width="2"/>
<path d="M331.184 394.783H373.103" stroke="black" stroke-width="2"/>
<path d="M343.681 366.139L343.681 422.274" stroke="black" stroke-width="2"/>
<path d="M360.317 366.139L360.317 422.274" stroke="black" stroke-width="2"/>
<path d="M266.518 483.046V368.675H319.134V483.046H266.518Z" fill="#966436" stroke="black" stroke-width="2"/>
<path d="M314.477 423.605C314.477 424.741 313.557 425.661 312.421 425.661C311.285 425.661 310.364 424.74 310.364 423.605C310.364 422.469 311.284 421.549 312.421 421.549C313.557 421.549 314.477 422.47 314.477 423.605Z" fill="#A1887F" stroke="black" stroke-width="2"/>
<path d="M403.081 563.009L403.53 563.257C411.284 560.774 418.837 554.504 422.737 547.389C422.737 547.389 409.791 519.402 400.666 503.354C402.703 497.7 405.255 485.457 404.647 479.478C404.039 473.499 403.367 465.924 397.406 465.157C392.665 476.244 387.606 489.298 382.865 500.386L403.081 563.009Z" fill="#C98773"/>
<path d="M381.5 553.867L381.867 554.225C390.002 553.878 398.942 549.827 404.583 543.994C404.583 543.994 399.489 513.581 394.928 495.693C398.386 490.778 404.082 479.644 405.075 473.717C406.068 467.79 407.42 460.306 401.874 457.992C394.373 467.433 386.045 478.687 378.543 488.128L381.5 553.867Z" fill="#FFAB91"/>
<path d="M653.584 398.323H407.642C404.972 398.323 402.8 400.495 402.8 403.165V539.508C402.8 542.178 404.972 544.349 407.642 544.349H653.584C656.254 544.349 658.426 542.178 658.426 539.508V403.164C658.426 400.495 656.254 398.323 653.584 398.323Z" fill="white"/>
<path d="M653.584 394.336H407.642C402.774 394.336 398.814 398.296 398.814 403.164V539.508C398.814 544.376 402.774 548.336 407.642 548.336H653.584C658.452 548.336 662.413 544.376 662.413 539.508V403.164C662.413 398.297 658.452 394.336 653.584 394.336ZM658.426 539.508C658.426 542.178 656.254 544.349 653.584 544.349H407.642C404.972 544.349 402.8 542.178 402.8 539.508V403.164C402.8 400.494 404.972 398.322 407.642 398.322H653.584C656.254 398.322 658.426 400.494 658.426 403.164V539.508Z" fill="#263238"/>
<mask id="path-115-inside-1_41_5980" fill="white">
<path fill-rule="evenodd" clip-rule="evenodd" d="M563.476 374.332H579.208C582.624 374.332 585.392 371.563 585.392 368.148V315.376C585.392 311.961 582.623 309.192 579.208 309.192H472.069C468.654 309.192 465.885 311.961 465.885 315.376V368.148C465.885 371.563 468.654 374.332 472.069 374.332H554.942L559.638 407.594L563.476 374.332Z"/>
</mask>
<path fill-rule="evenodd" clip-rule="evenodd" d="M563.476 374.332H579.208C582.624 374.332 585.392 371.563 585.392 368.148V315.376C585.392 311.961 582.623 309.192 579.208 309.192H472.069C468.654 309.192 465.885 311.961 465.885 315.376V368.148C465.885 371.563 468.654 374.332 472.069 374.332H554.942L559.638 407.594L563.476 374.332Z" fill="#F6D8D7"/>
<path d="M563.476 374.332V373.332H562.585L562.482 374.218L563.476 374.332ZM554.942 374.332L555.932 374.193L555.81 373.332H554.942V374.332ZM559.638 407.594L558.648 407.734L560.631 407.708L559.638 407.594ZM579.208 373.332H563.476V375.332H579.208V373.332ZM584.392 368.148C584.392 371.011 582.072 373.332 579.208 373.332V375.332C583.176 375.332 586.392 372.116 586.392 368.148H584.392ZM584.392 315.376V368.148H586.392V315.376H584.392ZM579.208 310.192C582.071 310.192 584.392 312.514 584.392 315.376H586.392C586.392 311.409 583.175 308.192 579.208 308.192V310.192ZM472.069 310.192H579.208V308.192H472.069V310.192ZM466.885 315.376C466.885 312.514 469.206 310.192 472.069 310.192V308.192C468.102 308.192 464.885 311.409 464.885 315.376H466.885ZM466.885 368.148V315.376H464.885V368.148H466.885ZM472.069 373.332C469.206 373.332 466.885 371.011 466.885 368.148H464.885C464.885 372.116 468.102 375.332 472.069 375.332V373.332ZM554.942 373.332H472.069V375.332H554.942V373.332ZM553.952 374.472L558.648 407.734L560.628 407.454L555.932 374.193L553.952 374.472ZM560.631 407.708L564.469 374.447L562.482 374.218L558.645 407.479L560.631 407.708Z" fill="black" mask="url(#path-115-inside-1_41_5980)"/>
<path d="M574.977 321.557H522.244V324.008H574.977V321.557Z" fill="white"/>
<path d="M574.977 329.36H522.244V331.811H574.977V329.36Z" fill="white"/>
<path d="M574.977 337.165H522.244V339.616H574.977V337.165Z" fill="white"/>
<path d="M574.977 344.969H522.244V347.42H574.977V344.969Z" fill="white"/>
<path d="M574.977 352.771H522.244V355.222H574.977V352.771Z" fill="white"/>
<path d="M555.889 360.575H522.244V363.026H555.889V360.575Z" fill="white"/>
<path d="M489.404 359.072L490.243 360.774L492.12 361.046L490.762 362.37L491.083 364.24L489.404 363.357L487.724 364.24L488.045 362.37L486.687 361.046L488.564 360.774L489.404 359.072Z" fill="white"/>
<path d="M481.881 359.072L482.721 360.774L484.598 361.046L483.24 362.37L483.56 364.24L481.881 363.357L480.202 364.24L480.523 362.37L479.164 361.046L481.042 360.774L481.881 359.072Z" fill="white"/>
<path d="M496.926 359.072L497.765 360.774L499.643 361.046L498.284 362.37L498.605 364.24L496.926 363.357L495.247 364.24L495.568 362.37L494.209 361.046L496.086 360.774L496.926 359.072Z" fill="white"/>
<path d="M504.448 359.072L505.288 360.774L507.165 361.046L505.806 362.37L506.127 364.24L504.448 363.357L502.769 364.24L503.09 362.37L501.732 361.046L503.609 360.774L504.448 359.072Z" fill="white"/>
<path opacity="0.36" d="M511.97 359.072L512.81 360.774L514.687 361.046L513.329 362.37L513.65 364.24L511.97 363.357L510.292 364.24L510.612 362.37L509.254 361.046L511.131 360.774L511.97 359.072Z" fill="white"/>
<path d="M496.926 321.557L476.301 339.208H480.25V356.576H513.601V339.208H517.551L496.926 321.557Z" fill="white"/>
<path d="M501.575 343.289H492.276V356.576H501.575V343.289Z" fill="#D3E1F1"/>
<path d="M622.553 468.333L633.783 398.001H627.826L622.534 431.144L550.555 428.173L546.403 398.001H540.463L544.633 428.306L470.873 433.754L467.573 398H461.662L463.275 415.485L403.001 416.942V422.647L463.801 421.177L465.526 439.867L491.62 437.94L485.593 481.919L403 499.385V505.221L485.419 487.791L487.408 544H493.299L492.57 523.397L557.501 521.827L560.552 543.999H566.492L558.051 482.649L611.915 497.644L604.512 543.999H610.469L621.638 474.057L659 473.154V467.45L622.553 468.333ZM497.621 437.497L545.412 433.968L551.025 474.763L537.389 470.967L491.71 480.627L497.621 437.497ZM492.368 517.699L491.265 486.556L537.192 476.843L551.873 480.93L556.718 516.143L492.368 517.699ZM612.822 491.966L557.202 476.482L551.344 433.913L621.628 436.815L612.822 491.966Z" fill="#C1E2F4"/>
<path d="M559.936 409.564L550.473 417.662H552.285V425.63H567.586V417.662H569.398L559.936 409.564Z" fill="#F5514C"/>
<path d="M562.069 419.534H557.803V425.63H562.069V419.534Z" fill="#EFEBE9"/>
<path d="M431.188 473.873L421.726 481.971H423.538V489.939H438.838V481.971H440.65L431.188 473.873Z" fill="#F5514C"/>
<path d="M433.321 483.843H429.055V489.939H433.321V483.843Z" fill="#EFEBE9"/>
<path d="M525.639 496.139L516.177 504.237H517.989V512.205H533.29V504.237H535.102L525.639 496.139Z" fill="#F5514C"/>
<path d="M527.772 506.108H523.506V512.204H527.772V506.108Z" fill="#EFEBE9"/>
<path d="M579.932 533.987H481.61C477.279 533.987 473.768 530.476 473.768 526.145C473.768 521.814 477.279 518.303 481.61 518.303H579.932C584.263 518.303 587.774 521.814 587.774 526.145C587.774 530.476 584.263 533.987 579.932 533.987Z" fill="#D3E1F1"/>
<path d="M481.09 529.28C480.528 529.28 479.991 529.195 479.478 529.027C478.965 528.851 478.561 528.626 478.266 528.352L478.656 527.53C478.937 527.776 479.295 527.98 479.731 528.142C480.166 528.303 480.619 528.384 481.09 528.384C481.519 528.384 481.866 528.335 482.133 528.236C482.4 528.138 482.597 528.005 482.723 527.836C482.85 527.66 482.913 527.464 482.913 527.246C482.913 526.993 482.829 526.789 482.66 526.635C482.499 526.48 482.284 526.357 482.017 526.266C481.757 526.168 481.469 526.083 481.153 526.013C480.837 525.943 480.518 525.862 480.194 525.771C479.878 525.672 479.587 525.549 479.32 525.402C479.06 525.254 478.849 525.058 478.688 524.812C478.526 524.559 478.445 524.236 478.445 523.842C478.445 523.463 478.544 523.115 478.74 522.799C478.944 522.476 479.253 522.219 479.668 522.03C480.089 521.833 480.623 521.735 481.269 521.735C481.698 521.735 482.123 521.791 482.544 521.903C482.966 522.016 483.331 522.177 483.64 522.388L483.292 523.231C482.976 523.02 482.643 522.869 482.291 522.778C481.94 522.68 481.599 522.63 481.269 522.63C480.855 522.63 480.514 522.683 480.247 522.788C479.98 522.894 479.783 523.034 479.657 523.21C479.538 523.386 479.478 523.582 479.478 523.8C479.478 524.06 479.559 524.267 479.72 524.422C479.889 524.576 480.103 524.699 480.363 524.791C480.63 524.882 480.922 524.966 481.238 525.043C481.554 525.114 481.87 525.195 482.186 525.286C482.509 525.377 482.801 525.497 483.061 525.644C483.328 525.792 483.542 525.988 483.703 526.234C483.865 526.48 483.946 526.796 483.946 527.183C483.946 527.555 483.844 527.903 483.64 528.226C483.436 528.542 483.12 528.798 482.692 528.995C482.27 529.185 481.736 529.28 481.09 529.28ZM486.444 525.001H490.238V525.897H486.444V525.001ZM486.539 528.279H490.838V529.195H485.485V521.819H490.691V522.736H486.539V528.279ZM491.428 529.195L494.768 521.819H495.811L499.162 529.195H498.056L495.074 522.409H495.495L492.513 529.195H491.428ZM492.85 527.351L493.135 526.508H497.287L497.592 527.351H492.85ZM500.263 529.195V521.819H503.139C503.786 521.819 504.337 521.921 504.794 522.125C505.25 522.328 505.602 522.623 505.848 523.01C506.093 523.396 506.216 523.856 506.216 524.39C506.216 524.924 506.093 525.384 505.848 525.771C505.602 526.15 505.25 526.441 504.794 526.645C504.337 526.849 503.786 526.951 503.139 526.951H500.842L501.316 526.466V529.195H500.263ZM505.194 529.195L503.319 526.519H504.446L506.343 529.195H505.194ZM501.316 526.571L500.842 526.055H503.108C503.782 526.055 504.291 525.911 504.636 525.623C504.987 525.328 505.163 524.917 505.163 524.39C505.163 523.863 504.987 523.456 504.636 523.168C504.291 522.88 503.782 522.736 503.108 522.736H500.842L501.316 522.209V526.571ZM511.217 529.28C510.655 529.28 510.135 529.188 509.658 529.006C509.187 528.816 508.776 528.553 508.425 528.215C508.08 527.871 507.81 527.471 507.613 527.014C507.417 526.557 507.318 526.055 507.318 525.507C507.318 524.959 507.417 524.457 507.613 524C507.81 523.544 508.084 523.147 508.435 522.81C508.786 522.465 509.197 522.202 509.668 522.019C510.146 521.83 510.666 521.735 511.228 521.735C511.797 521.735 512.32 521.833 512.798 522.03C513.282 522.219 513.693 522.504 514.031 522.883L513.346 523.547C513.065 523.252 512.749 523.034 512.397 522.894C512.046 522.746 511.67 522.673 511.27 522.673C510.855 522.673 510.469 522.743 510.111 522.883C509.759 523.024 509.454 523.22 509.194 523.473C508.934 523.726 508.73 524.028 508.583 524.38C508.442 524.724 508.372 525.1 508.372 525.507C508.372 525.915 508.442 526.294 508.583 526.645C508.73 526.989 508.934 527.288 509.194 527.541C509.454 527.794 509.759 527.991 510.111 528.131C510.469 528.272 510.855 528.342 511.27 528.342C511.67 528.342 512.046 528.272 512.397 528.131C512.749 527.983 513.065 527.759 513.346 527.457L514.031 528.12C513.693 528.5 513.282 528.788 512.798 528.985C512.32 529.181 511.793 529.28 511.217 529.28ZM520.824 521.819H521.878V529.195H520.824V521.819ZM516.588 529.195H515.534V521.819H516.588V529.195ZM520.919 525.908H516.482V524.991H520.919V525.908Z" fill="#353842"/>
<path d="M578.016 527.786C576.637 526.407 576.637 524.163 578.016 522.783C579.396 521.403 581.64 521.403 583.019 522.783C584.398 524.163 584.398 526.407 583.019 527.786C581.64 529.165 579.396 529.165 578.016 527.786ZM582.3 523.502C581.317 522.519 579.718 522.52 578.735 523.502C577.752 524.484 577.752 526.083 578.735 527.066C579.718 528.049 581.317 528.049 582.3 527.066C583.283 526.084 583.283 524.485 582.3 523.502Z" fill="#8C94AD"/>
<path d="M578.052 527.064L575.65 529.466L576.369 530.185L578.771 527.783L578.052 527.064Z" fill="#8C94AD"/>
<path d="M432.973 505.368C433.672 506.766 435.112 507.667 436.934 508.259L438.575 492.463C438.687 491.388 437.552 490.625 436.599 491.134C436.277 491.306 435.967 491.494 435.655 491.678C434.335 496.525 431.142 502.621 432.973 505.368Z" fill="#FFE3DB"/>
<path d="M432.973 505.369C431.142 502.622 434.334 496.527 435.655 491.679C428.241 496.044 423.433 503.802 422.879 512.434L422.808 513.538L415.308 531.849C413.923 535.231 410.787 537.674 407.141 537.915C404.776 538.071 402.522 537.337 401.874 534.285L393.238 513.091L393.216 480.175L395.117 476.727C397.542 472.33 398.813 467.391 398.813 462.369V453.756C398.813 451.861 396.425 451.026 395.244 452.508L380.242 471.336L374 522.764L387.435 586.641L423.806 581.334L435.176 550.498L436.044 516.817L436.933 508.258C435.112 507.668 433.672 506.766 432.973 505.369Z" fill="#FFCCBC"/>
<path d="M387.436 586.643L382.565 659.314H440.65L423.807 581.336L387.436 586.643Z" fill="#FFCCBC"/>
<path d="M623.723 554.228L585.413 556.968L563.093 538.308C557.526 537.178 549.931 509.157 554.624 501.465L562.573 497.908L564.253 494.198L561.873 475.808L556.043 430.858C555.683 428.138 557.553 425.628 560.263 425.198C562.853 424.788 565.333 426.438 565.953 428.988L577.593 476.738L612.283 481.302C619.333 482.152 622.023 485.706 623.723 492.606V554.228Z" fill="#FFCCBC"/>
<path d="M565.233 429.956C564.721 427.851 562.674 426.489 560.536 426.828C558.299 427.183 556.756 429.255 557.053 431.5L557.852 437.658C561.041 437.536 563.977 436.909 566.644 435.742L565.233 429.956Z" fill="#FFE3DB"/>
<path d="M564.251 494.187L564.252 494.198L562.572 497.908C562.962 503.778 563.342 509.648 563.732 515.518C563.812 516.788 565.812 516.828 565.732 515.538C565.262 508.397 564.789 501.262 564.318 494.125C564.297 494.149 564.273 494.164 564.251 494.187Z" fill="#FFAB91"/>
<path d="M585.408 556.972V659.314H643.494L623.726 554.226L585.408 556.972Z" fill="#FFCCBC"/>
<g clip-path="url(#clip1_41_5980)">
<path d="M23.0349 447C22.371 447 21.8278 446.455 21.8278 445.789V425.211C21.8278 424.545 22.371 424 23.0349 424C23.6988 424 24.2421 424.545 24.2421 425.211V445.789C24.2421 446.455 23.6988 447 23.0349 447Z" fill="#2B2065"/>
<path d="M68.9062 447C68.2423 447 67.6991 446.455 67.6991 445.789V425.211C67.6991 424.545 68.2423 424 68.9062 424C69.5701 424 70.1133 424.545 70.1133 425.211V445.789C70.1133 446.455 69.5701 447 68.9062 447Z" fill="#2B2065"/>
<path d="M73.7347 438.526H18.2067C17.5428 438.526 16.9995 437.981 16.9995 437.315C16.9995 436.649 17.5428 436.104 18.2067 436.104H73.7347C74.3986 436.104 74.9418 436.649 74.9418 437.315C74.9418 437.981 74.3986 438.526 73.7347 438.526Z" fill="#2B2065"/>
<path d="M73.7347 433.685H18.2067C17.5428 433.685 16.9995 433.14 16.9995 432.474C16.9995 431.808 17.5428 431.264 18.2067 431.264H73.7347C74.3986 431.264 74.9418 431.808 74.9418 432.474C74.9418 433.14 74.3986 433.685 73.7347 433.685Z" fill="#2B2065"/>
<path d="M73.7347 428.842H18.2067C17.5428 428.842 16.9995 428.297 16.9995 427.631C16.9995 426.966 17.5428 426.421 18.2067 426.421H73.7347C74.3986 426.421 74.9418 426.966 74.9418 427.631C74.9418 428.297 74.3986 428.842 73.7347 428.842Z" fill="#2B2065"/>
</g>
<path d="M28.9061 32.8477H24V52.5109H28.9061V32.8477Z" fill="#2B2065"/>
<path d="M44.1166 32.8477H39.2104V52.5109H44.1166V32.8477Z" fill="#2B2065"/>
<path d="M67.1761 42.6777C67.1761 48.38 62.5644 53.0009 56.8732 53.0009C51.1821 53.0009 46.5703 48.38 46.5703 42.6777C46.5703 36.9754 51.1821 32.3545 56.8732 32.3545C62.5644 32.3545 67.1761 36.9754 67.1761 42.6777ZM61.7794 37.2703H51.9671V48.0851H61.7794V37.2703Z" fill="#2B2065"/>
<path d="M89.2494 42.6777C89.2494 48.38 84.6376 53.0009 78.9465 53.0009C73.2554 53.0009 68.6436 48.38 68.6436 42.6777C68.6436 36.9754 73.2554 32.3545 78.9465 32.3545C84.6376 32.3545 89.2494 36.9754 89.2494 42.6777ZM83.8526 37.2703H74.0403V48.0851H83.8526V37.2703Z" fill="#2B2065"/>
<path d="M41.6634 30.8821C43.5601 30.8821 45.0977 29.3415 45.0977 27.4411C45.0977 25.5406 43.5601 24 41.6634 24C39.7667 24 38.2291 25.5406 38.2291 27.4411C38.2291 29.3415 39.7667 30.8821 41.6634 30.8821Z" fill="#2B2065"/>
<path d="M27.9253 37.7635C27.9253 34.8976 32.3408 32.8477 36.2657 32.8477V37.7635H27.9253Z" fill="#2B2065"/>
</g>
<defs>
<filter id="filter0_d_41_5980" x="644" y="373" width="80.5673" height="94.125" filterUnits="userSpaceOnUse" color-interpolation-filters="sRGB">
<feFlood flood-opacity="0" result="BackgroundImageFix"/>
<feColorMatrix in="SourceAlpha" type="matrix" values="0 0 0 0 0 0 0 0 0 0 0 0 0 0 0 0 0 0 127 0" result="hardAlpha"/>
<feOffset dy="4"/>
<feGaussianBlur stdDeviation="2"/>
<feComposite in2="hardAlpha" operator="out"/>
<feColorMatrix type="matrix" values="0 0 0 0 0 0 0 0 0 0 0 0 0 0 0 0 0 0 0.25 0"/>
<feBlend mode="normal" in2="BackgroundImageFix" result="effect1_dropShadow_41_5980"/>
<feBlend mode="normal" in="SourceGraphic" in2="effect1_dropShadow_41_5980" result="shape"/>
</filter>
<clipPath id="clip0_41_5980">
<rect width="1060" height="596" rx="16" fill="white"/>
</clipPath>
<clipPath id="clip1_41_5980">
<rect width="57.9423" height="23" fill="white" transform="translate(17 424)"/>
</clipPath>
</defs>
</svg>
